<svg xmlns="http://www.w3.org/2000/svg" xmlns:xlink="http://www.w3.org/1999/xlink" width="282" height="270" viewBox="0 0 282 270">
  <defs>
    <clipPath id="clip-path">
      <path id="Path_28687" data-name="Path 28687" d="M0,0H250V250H0Z"/>
    </clipPath>
    <clipPath id="clip-path-2">
      <rect id="Rectangle_25674" data-name="Rectangle 25674" width="299" height="208" rx="20" transform="translate(-16193.664 -19767.252)" fill="#fff"/>
    </clipPath>
    <clipPath id="clip-path-3">
      <path id="Rectangle_27694" data-name="Rectangle 27694" d="M0,0H169.731V179.858H0Z" fill="none"/>
    </clipPath>
    <clipPath id="clip-Artboard_2">
      <rect width="282" height="270"/>
    </clipPath>
  </defs>
  <g id="Artboard_2" data-name="Artboard – 2" clip-path="url(#clip-Artboard_2)">
    <g id="Mask_Group_37959" data-name="Mask Group 37959" transform="translate(16 10)" clip-path="url(#clip-path)">
      <g id="Group_24147" data-name="Group 24147" transform="translate(16174.664 19825.252)" clip-path="url(#clip-path-2)">
        <g id="Group_26841" data-name="Group 26841" transform="translate(-16128.825 -19754.906)">
          <g id="Group_30554" data-name="Group 30554">
            <g id="Group_26839" data-name="Group 26839">
              <g id="Group_30553" data-name="Group 30553">
                <g id="Group_30550" data-name="Group 30550">
                  <g id="Group_30549" data-name="Group 30549" clip-path="url(#clip-path-3)">
                    <path id="Path_19138" data-name="Path 19138" d="M81.509,18.75A64.147,64.147,0,1,1,17.362,82.9,64.147,64.147,0,0,1,81.509,18.75" transform="translate(3.376 6.844)" fill="#7f7f7f" opacity="0.2"/>
                    <path id="Rectangle_27691" data-name="Rectangle 27691" d="M10.471-.35H92.753a10.821,10.821,0,0,1,10.821,10.821V168.382A10.821,10.821,0,0,1,92.753,179.2H10.472A10.822,10.822,0,0,1-.35,168.382V10.471A10.821,10.821,0,0,1,10.471-.35Zm82.281,178.9a10.18,10.18,0,0,0,10.168-10.168V10.471A10.18,10.18,0,0,0,92.753.3H10.471A10.18,10.18,0,0,0,.3,10.471v157.91a10.181,10.181,0,0,0,10.169,10.169Z" transform="translate(0.501 0.502)" fill="#002b47"/>
                    <path id="Path_19139" data-name="Path 19139" d="M15.3,5.35H30.913l0,.326,0,.326H15.3A9.282,9.282,0,0,0,6.029,15.27V160a9.27,9.27,0,0,0,9.27,9.271H85.172a9.282,9.282,0,0,0,9.271-9.267V15.275A9.27,9.27,0,0,0,85.171,6H70.557a9.3,9.3,0,0,0-6.806,2.974l-1.4,1.518a9.958,9.958,0,0,1-7.285,3.183H46.716a9.894,9.894,0,0,1-6.76-2.659L37.229,8.481A9.253,9.253,0,0,0,30.916,6V5.35A9.9,9.9,0,0,1,37.673,8L40.4,10.54a9.243,9.243,0,0,0,6.316,2.484h8.346a9.3,9.3,0,0,0,6.806-2.973l1.4-1.518A9.952,9.952,0,0,1,70.555,5.35H85.171A9.923,9.923,0,0,1,95.1,15.275V160.007a9.924,9.924,0,0,1-9.923,9.919H15.3A9.923,9.923,0,0,1,5.376,160V15.269A9.923,9.923,0,0,1,15.3,5.35Z" transform="translate(2.113 2.101)" fill="#002b47"/>
                    <path id="Path_19140" data-name="Path 19140" d="M130.031,115.778l-6.332-3.934a.313.313,0,0,0-.408.093l-8.752,11.781a.28.28,0,0,0-.053.224c.675,3.067,1.352,9.141,1.429,9.855a.245.245,0,0,1-.021.135c-.253.565-5.788,1.159-7.356,3.616-.177.28.22.689.513.522l11.177-.153a.3.3,0,0,0,.131-.141l9.766-21.665a.255.255,0,0,0-.093-.33" transform="translate(39.582 40.789)" fill="#002b47"/>
                    <path id="Path_19141" data-name="Path 19141" d="M119.273,135.433V123.389l-14.981-4.7-4.851,10.132c-6.462,2.938-14.1,5.137-14.1,6.61,0,.587,21,.147,33.926,0" transform="translate(31.138 43.302)" fill="#002b47"/>
                    <path id="Path_19142" data-name="Path 19142" d="M79.9,94.723l8.561-29.217,19.569,5.241L98.248,100.8l37.736,28.824-11.18,14.5L85.839,113.347A17.466,17.466,0,0,1,79.9,94.723" transform="translate(28.893 23.898)" fill="#153050"/>
                    <path id="Path_19143" data-name="Path 19143" d="M88.216,65.079l20.21,5.413L98.607,100.65l37.813,28.882-11.582,15.022L85.613,113.575A17.792,17.792,0,0,1,79.565,94.6Zm19.376,5.866-18.929-5.07L80.192,94.786a17.064,17.064,0,0,0,5.826,18.276l38.707,30.569L135.5,129.653l-37.66-28.765Z" transform="translate(28.917 23.927)" fill="#002b47"/>
                    <path id="Path_19144" data-name="Path 19144" d="M113.328,70.627H93.411l4.367,73.727H117.87Z" transform="translate(34.08 25.767)" fill="#153050"/>
                    <path id="Path_19145" data-name="Path 19145" d="M93.04,70.277H113.61l4.582,74.38H97.446ZM113,70.93H93.732L98.061,144H117.5Z" transform="translate(34.104 25.79)" fill="#002b47"/>
                    <path id="Path_19146" data-name="Path 19146" d="M112.344,28.332c-2.6,6.878-11.551,2.985-11.551,2.985L87.42,28.332S78.2,24.05,81.45,15.614c1.278-3.322,5.711-4.412,5.711-4.412a8.135,8.135,0,0,1,7.4-3.894c5.451,0,7.529,3.115,7.529,3.115a6.115,6.115,0,0,1,7.267,2.207c2.207,2.855.909,7.138.909,7.138s4.329,2.6,2.075,8.566" transform="translate(29.465 2.666)"/>
                    <path id="Path_19147" data-name="Path 19147" d="M87.077,29.69a28.406,28.406,0,0,1,7.049-1.806h9.783s7.276-.763,11.881,3.843c6.115,6.115,4.717,28.477,4.717,28.477l-38.108.35,1.046-13.63L84.295,34.2a5.067,5.067,0,0,1,2.783-4.511" transform="translate(30.061 10.156)" fill="#fff"/>
                    <path id="Path_19148" data-name="Path 19148" d="M105.083,27.487a19.032,19.032,0,0,1,4.977.659A13.215,13.215,0,0,1,116,31.473c1.437,1.437,2.582,3.854,3.4,7.182a55.944,55.944,0,0,1,1.344,9.559,106.644,106.644,0,0,1,.066,11.987l-.019.3-38.767.356,1.073-13.985.848-12.714A5.369,5.369,0,0,1,86.9,29.376l.026-.012a28.747,28.747,0,0,1,7.13-1.827l.02,0h9.787C103.961,27.526,104.4,27.487,105.083,27.487Zm15.091,32.371a107.051,107.051,0,0,0-.083-11.608c-.538-8.231-2.114-13.873-4.556-16.315-3.424-3.425-8.45-3.795-10.452-3.795-.719,0-1.16.045-1.165.045l-.034,0H94.121a28.092,28.092,0,0,0-6.935,1.777,4.719,4.719,0,0,0-2.591,4.21V34.2l-.849,12.727L82.727,60.2Z" transform="translate(30.087 10.179)" fill="#002b47"/>
                    <path id="Path_19149" data-name="Path 19149" d="M72.708,42.97a3.043,3.043,0,0,1,3.419-2.612l63.533,8.458a3.043,3.043,0,0,1,2.612,3.418L137.5,88.053a3.043,3.043,0,0,1-3.419,2.612L70.551,82.208a3.043,3.043,0,0,1-2.612-3.419Z" transform="translate(24.777 14.714)" fill="#fff"/>
                    <path id="Path_19150" data-name="Path 19150" d="M75.7,39.981a3.412,3.412,0,0,1,.45.03l63.533,8.458a3.374,3.374,0,0,1,2.892,3.785L137.8,88.073a3.366,3.366,0,0,1-3.786,2.892L70.484,82.508a3.373,3.373,0,0,1-2.892-3.786L72.36,42.9A3.378,3.378,0,0,1,75.7,39.981Zm58.771,50.361a2.723,2.723,0,0,0,2.688-2.356l4.768-35.819a2.72,2.72,0,0,0-2.332-3.051L76.06,40.658a2.755,2.755,0,0,0-.364-.024,2.723,2.723,0,0,0-2.688,2.356L68.239,78.809a2.72,2.72,0,0,0,2.332,3.052L134.1,90.318A2.756,2.756,0,0,0,134.467,90.342Z" transform="translate(24.8 14.737)" fill="#002b47"/>
                    <path id="Path_19151" data-name="Path 19151" d="M110.693,71.38a3.516,3.516,0,0,1,1.656-2.536,3.545,3.545,0,1,0-.845,5.271,3.524,3.524,0,0,1-.811-2.735" transform="translate(38.714 24.654)" fill="#3399e8"/>
                    <path id="Path_19152" data-name="Path 19152" d="M109.624,74.99h0a3.874,3.874,0,0,1-3.189-1.673c-1.179-1.709.68-5.042.76-5.183l.069-.123.137-.034a11.218,11.218,0,0,1,2.4-.284,3.5,3.5,0,0,1,2.8.95l.242.291-.323.2a3.176,3.176,0,0,0-.766,4.781l.245.288-.32.2A3.862,3.862,0,0,1,109.624,74.99Zm-1.93-6.41c-.512.958-1.474,3.277-.722,4.366a3.217,3.217,0,0,0,4.04,1.074,3.827,3.827,0,0,1,.813-5.206,3.715,3.715,0,0,0-2.028-.468A10.739,10.739,0,0,0,107.694,68.581Z" transform="translate(38.716 24.646)" fill="#002b47"/>
                    <path id="Path_19153" data-name="Path 19153" d="M113.224,68.138a3.512,3.512,0,0,0-2.316.513,3.5,3.5,0,0,1-.845,5.272,3.537,3.537,0,1,0,3.161-5.783" transform="translate(40.154 24.848)" fill="#ed3b25"/>
                    <path id="Path_19154" data-name="Path 19154" d="M112.745,67.76h0a3.857,3.857,0,0,1,.484.031l.285.036v.013a3.864,3.864,0,0,1,.807,7.307,3.863,3.863,0,0,1-4.544-1.038l-.245-.292.326-.2a3.177,3.177,0,0,0,.766-4.781l-.245-.287.319-.2A3.833,3.833,0,0,1,112.745,67.76Zm.3.667a3.189,3.189,0,0,0-1.684.3,3.831,3.831,0,0,1-.835,5.226,3.211,3.211,0,1,0,2.62-5.514Z" transform="translate(40.19 24.872)" fill="#002b47"/>
                    <path id="Rectangle_27692" data-name="Rectangle 27692" d="M0,0H10.555V70.181H0Z" transform="translate(95.17 75.08) rotate(-82.417)" fill="#002b47"/>
                    <path id="Path_19155" data-name="Path 19155" d="M86.156,60.843,91.4,57.7l6.643,8.209-7.517,4.2-1.756,7.649a.349.349,0,0,1-.689-.077V70.106l-3.4,6.791a.351.351,0,0,1-.312.194H82.223a.349.349,0,0,1-.341-.425l2.175-9.708-2.892,3.258a.35.35,0,0,1-.56-.416Z" transform="translate(29.386 21.05)" fill="#fff"/>
                    <path id="Path_19156" data-name="Path 19156" d="M91.373,57.35a.326.326,0,0,1,.254.121L98.27,65.68a.326.326,0,0,1-.095.49L90.786,70.3,89.062,77.8a.671.671,0,0,1-.658.526.676.676,0,0,1-.676-.678V71.465L84.949,77.02a.674.674,0,0,1-.6.374H82.2a.675.675,0,0,1-.66-.823l1.9-8.474-2.052,2.313A.676.676,0,0,1,80.3,69.6l5.55-8.956a.326.326,0,0,1,.11-.108l5.24-3.143A.325.325,0,0,1,91.373,57.35Zm6.146,8.439L91.3,58.1l-4.929,2.956-5.509,8.89a.024.024,0,0,0,.005.032.021.021,0,0,0,.031,0l2.893-3.26a.326.326,0,0,1,.563.288l-2.175,9.708a.022.022,0,0,0,.022.027h2.146a.024.024,0,0,0,.02-.013l3.4-6.791a.326.326,0,0,1,.618.146v7.572a.022.022,0,0,0,.044.006l1.757-7.651a.327.327,0,0,1,.159-.212Z" transform="translate(29.409 21.073)" fill="#002b47"/>
                    <path id="Path_19157" data-name="Path 19157" d="M101.876,38.245l4.912,15.332L85.924,65.623l7.863,13.619,26.09-15.064a8.426,8.426,0,0,0,3.767-9.525l-6.795-21.2" transform="translate(31.348 12.202)" fill="#fff"/>
                    <path id="Path_19158" data-name="Path 19158" d="M93.635,79.681,85.446,65.5l20.919-12.078-4.832-15.082.622-.2,4.992,15.583L86.338,65.735l7.536,13.053,25.805-14.9a8.115,8.115,0,0,0,3.62-9.149l-6.793-21.2.622-.2,6.8,21.215a8.769,8.769,0,0,1-3.913,9.894l0,0Z" transform="translate(31.38 12.209)" fill="#002b47"/>
                    <path id="Path_19159" data-name="Path 19159" d="M92.971,30.94s-3.91,1.4-6.783-1.328-1.723-7.564-1.723-7.564l1.586-9.789s3.038,4.535,7.929,3.837,4.455,3.31,4.455,3.31,4.944-3.6,6.25,1.2c.92,3.388-2.874,5.166-2.874,5.166l1.433,7.276s-.13,3.774-4.957,4.729c-4.971.982-5.317-2.985-5.317-2.985Z" transform="translate(30.732 4.473)" fill="#fff"/>
                    <path id="Path_19160" data-name="Path 19160" d="M96.782,38.235a3.938,3.938,0,0,1-3.528-1.718A4.1,4.1,0,0,1,92.62,34.8q0-.014,0-.028l0-3.416a8.49,8.49,0,0,1-2.039.25,6.6,6.6,0,0,1-4.642-1.777A7.2,7.2,0,0,1,83.9,24.8a11.33,11.33,0,0,1,.222-2.837L85.7,12.183a.326.326,0,0,1,.594-.129,9.97,9.97,0,0,0,1.8,1.9,7.567,7.567,0,0,0,4.84,1.868,6.913,6.913,0,0,0,.974-.07,7.994,7.994,0,0,1,1.123-.085,3.682,3.682,0,0,1,2.877,1.085,3.487,3.487,0,0,1,.824,2.037,6.681,6.681,0,0,1,3.163-1.025c1.065,0,2.464.474,3.079,2.735a4.2,4.2,0,0,1-1.172,4.165,7.18,7.18,0,0,1-1.65,1.263l1.386,7.036a.325.325,0,0,1,.006.074,4.931,4.931,0,0,1-.714,2.163,6.387,6.387,0,0,1-4.505,2.876A8.021,8.021,0,0,1,96.782,38.235Zm-3.51-3.484a3.238,3.238,0,0,0,3.51,2.831,7.369,7.369,0,0,0,1.417-.15,5.768,5.768,0,0,0,4.072-2.57,4.392,4.392,0,0,0,.62-1.817l-1.425-7.235a.326.326,0,0,1,.182-.359,6.48,6.48,0,0,0,1.7-1.256,3.531,3.531,0,0,0,1-3.528c-.413-1.516-1.214-2.253-2.449-2.253A6.8,6.8,0,0,0,98.6,19.646a.327.327,0,0,1-.516-.3,3.109,3.109,0,0,0-.667-2.166,3.069,3.069,0,0,0-2.387-.864A7.341,7.341,0,0,0,94,16.4a7.569,7.569,0,0,1-1.067.076,8.318,8.318,0,0,1-5.27-2.029,11.251,11.251,0,0,1-1.436-1.414l-1.466,9.048q0,.012,0,.023a10.814,10.814,0,0,0-.207,2.686,6.677,6.677,0,0,0,1.837,4.566,5.877,5.877,0,0,0,4.193,1.6,7.432,7.432,0,0,0,2.256-.34.326.326,0,0,1,.436.308Z" transform="translate(30.755 4.496)" fill="#002b47"/>
                    <path id="Path_19161" data-name="Path 19161" d="M90.607,30.5V26.478l5.358-3.285Z" transform="translate(33.056 8.462)" fill="#002b47"/>
                    <path id="Path_19162" data-name="Path 19162" d="M86.171,17.659c-.182.609-.017,1.194.368,1.306s.84-.285,1.026-.894.017-1.2-.368-1.306-.84.286-1.026.9" transform="translate(31.411 6.109)" fill="#002b47"/>
                    <path id="Path_19163" data-name="Path 19163" d="M89.755,18.427c-.182.609-.017,1.194.368,1.306s.84-.285,1.026-.894.017-1.2-.368-1.306-.84.286-1.026.9" transform="translate(32.718 6.389)" fill="#002b47"/>
                    <path id="Line_2218" data-name="Line 2218" d="M0,8.669,3,0" transform="translate(112.433 89.405)" fill="#fff"/>
                    <path id="Line_2219" data-name="Line 2219" d="M-.024,8.972A.326.326,0,0,1-.13,8.954a.326.326,0,0,1-.2-.415l3-8.669a.326.326,0,0,1,.415-.2.326.326,0,0,1,.2.415l-3,8.669A.327.327,0,0,1-.024,8.972Z" transform="translate(112.457 89.429)" fill="#002b47"/>
                    <path id="Path_19164" data-name="Path 19164" d="M89.334,17.293A25.893,25.893,0,0,0,87.4,21.517a10.693,10.693,0,0,0,1.938.348" transform="translate(31.884 6.309)" fill="#fff"/>
                    <path id="Path_19165" data-name="Path 19165" d="M89.315,22.168h-.028a11.047,11.047,0,0,1-2-.359.326.326,0,0,1-.221-.423,26.29,26.29,0,0,1,1.958-4.277.326.326,0,1,1,.567.324,25.645,25.645,0,0,0-1.788,3.835,10.4,10.4,0,0,0,1.537.249.326.326,0,0,1-.027.652Z" transform="translate(31.907 6.332)" fill="#002b47"/>
                    <path id="Path_19166" data-name="Path 19166" d="M90.559,22.743a1.227,1.227,0,1,1-2.454,0" transform="translate(32.143 8.298)" fill="#fff"/>
                    <path id="Path_19167" data-name="Path 19167" d="M89.309,24.273a1.555,1.555,0,0,1-1.554-1.554.326.326,0,1,1,.653,0,.9.9,0,0,0,1.8,0,.326.326,0,1,1,.653,0A1.555,1.555,0,0,1,89.309,24.273Z" transform="translate(32.167 8.321)" fill="#002b47"/>
                    <path id="Line_2220" data-name="Line 2220" d="M56.12.3H-.024A.326.326,0,0,1-.35-.024.326.326,0,0,1-.024-.35H56.12a.326.326,0,0,1,.326.326A.326.326,0,0,1,56.12.3Z" transform="translate(24.301 105.452)" fill="#002b47"/>
                    <path id="Line_2221" data-name="Line 2221" d="M40.937.3H-.024A.326.326,0,0,1-.35-.024.326.326,0,0,1-.024-.35h40.96a.326.326,0,0,1,.326.326A.326.326,0,0,1,40.937.3Z" transform="translate(31.893 119.519)" fill="#002b47"/>
                    <path id="Path_19168" data-name="Path 19168" d="M72.948,116.31H19.333a2.325,2.325,0,0,1-2.325-2.325v-12.21a2.325,2.325,0,0,1,2.325-2.325H72.948a2.325,2.325,0,0,1,2.325,2.325v12.209a2.325,2.325,0,0,1-2.325,2.325" transform="translate(6.207 36.282)" fill="#e52d12"/>
                    <path id="Rectangle_27693" data-name="Rectangle 27693" d="M1.562-.35H56.65a1.914,1.914,0,0,1,1.912,1.912V15.248a1.914,1.914,0,0,1-1.912,1.912H1.562A1.914,1.914,0,0,1-.35,15.248V1.562A1.914,1.914,0,0,1,1.562-.35ZM56.65,16.508a1.261,1.261,0,0,0,1.259-1.259V1.562A1.261,1.261,0,0,0,56.65.3H1.562A1.261,1.261,0,0,0,.3,1.562V15.248a1.261,1.261,0,0,0,1.259,1.259Z" transform="translate(23.242 135.754)" fill="#002b47"/>
                  </g>
                </g>
                <text id="Pay" transform="translate(44.161 146.655)" fill="#fff" font-size="10" font-family="ArialRoundedMTBold, Arial Rounded MT"><tspan x="0" y="0" letter-spacing="-0.03em">P</tspan><tspan y="0" letter-spacing="-0.01em">a</tspan><tspan y="0">y</tspan></text>
                <g id="Group_30552" data-name="Group 30552">
                  <g id="Group_30551" data-name="Group 30551" clip-path="url(#clip-path-3)">
                    <path id="Path_19169" data-name="Path 19169" d="M39.712,59.733c0,2.048-4.824,3.705-10.773,3.705S18.167,61.78,18.167,59.733s4.824-3.7,10.773-3.7,10.772,1.659,10.772,3.7" transform="translate(6.628 20.442)" fill="#3399e8"/>
                    <path id="Path_19170" data-name="Path 19170" d="M39.712,61.876c0,2.046-4.824,3.7-10.773,3.7s-10.773-1.659-10.773-3.7,4.824-3.7,10.773-3.7,10.773,1.659,10.773,3.7" transform="translate(6.628 21.223)" fill="#4a88f5"/>
                    <path id="Ellipse_5678" data-name="Ellipse 5678" d="M10.746-.4A24.725,24.725,0,0,1,18.485.705c2.2.755,3.407,1.811,3.407,2.972s-1.21,2.217-3.407,2.972a24.725,24.725,0,0,1-7.739,1.105A24.725,24.725,0,0,1,3.007,6.649C.81,5.894-.4,4.838-.4,3.677S.81,1.461,3.007.705A24.725,24.725,0,0,1,10.746-.4Zm0,7.408a23.973,23.973,0,0,0,7.5-1.065c1.818-.625,2.9-1.472,2.9-2.266s-1.085-1.641-2.9-2.266a23.973,23.973,0,0,0-7.5-1.065,23.973,23.973,0,0,0-7.5,1.065c-1.818.625-2.9,1.472-2.9,2.266s1.085,1.641,2.9,2.266A23.973,23.973,0,0,0,10.746,7.008Z" transform="translate(24.823 76.498)" fill="#002b47"/>
                    <path id="Path_19171" data-name="Path 19171" d="M28.914,66.458a24.725,24.725,0,0,1-7.739-1.105c-2.2-.755-3.407-1.811-3.407-2.972V58.743h.746v3.638c0,.794,1.085,1.641,2.9,2.266a23.972,23.972,0,0,0,7.5,1.065,23.972,23.972,0,0,0,7.5-1.065c1.818-.625,2.9-1.472,2.9-2.266V59.263h.746v3.118c0,1.161-1.21,2.217-3.407,2.972A24.724,24.724,0,0,1,28.914,66.458Z" transform="translate(6.656 21.431)" fill="#002b47"/>
                    <path id="Path_19172" data-name="Path 19172" d="M31.253,57.21v1.433a2.171,2.171,0,0,1-.009.227,1.3,1.3,0,0,1-.041.256,1.534,1.534,0,0,1-.525.855,2.612,2.612,0,0,1-1.014.5,5.238,5.238,0,0,1-1.358.164,4.489,4.489,0,0,1-1.853-.342,1.778,1.778,0,0,1-1-1.047,1.712,1.712,0,0,1-.073-.3,2.948,2.948,0,0,1-.015-.319V57.21h1.414V58.6a1.612,1.612,0,0,0,.012.187.84.84,0,0,0,.05.194.811.811,0,0,0,.337.389,1.625,1.625,0,0,0,.537.2,3.047,3.047,0,0,0,.591.06,3.107,3.107,0,0,0,.593-.06,1.656,1.656,0,0,0,.543-.2.777.777,0,0,0,.334-.389.671.671,0,0,0,.047-.194c.007-.068.009-.132.009-.187V57.21Zm-5.891,0,.373,1.09L22.2,60.94v-1.4Zm2.369.03h1.145v4.117H27.732Zm2.378,1.278h1.145v2.814H30.109Z" transform="translate(8.099 20.872)" fill="#002b47"/>
                    <path id="Path_19173" data-name="Path 19173" d="M41.62,55.4c0,2.046-4.824,3.7-10.773,3.7s-10.773-1.659-10.773-3.7,4.824-3.7,10.773-3.7S41.62,53.353,41.62,55.4" transform="translate(7.324 18.859)" fill="#3399e8"/>
                    <path id="Path_19174" data-name="Path 19174" d="M41.62,57.54c0,2.046-4.824,3.705-10.773,3.705S20.075,59.586,20.075,57.54s4.824-3.7,10.773-3.7,10.773,1.659,10.773,3.7" transform="translate(7.324 19.642)" fill="#4a88f5"/>
                    <path id="Ellipse_5679" data-name="Ellipse 5679" d="M10.746-.4A24.725,24.725,0,0,1,18.485.705c2.2.755,3.407,1.811,3.407,2.972s-1.21,2.217-3.407,2.972a24.725,24.725,0,0,1-7.739,1.105A24.725,24.725,0,0,1,3.007,6.649C.81,5.894-.4,4.838-.4,3.677S.81,1.461,3.007.705A24.725,24.725,0,0,1,10.746-.4Zm0,7.408a23.973,23.973,0,0,0,7.5-1.065c1.818-.625,2.9-1.472,2.9-2.266s-1.085-1.641-2.9-2.266a23.973,23.973,0,0,0-7.5-1.065,23.973,23.973,0,0,0-7.5,1.065c-1.818.625-2.9,1.472-2.9,2.266s1.085,1.641,2.9,2.266A23.973,23.973,0,0,0,10.746,7.008Z" transform="translate(27.426 70.581)" fill="#002b47"/>
                    <path id="Path_19175" data-name="Path 19175" d="M30.822,62.123a24.725,24.725,0,0,1-7.74-1.105c-2.2-.755-3.407-1.811-3.407-2.972V54.408h.746v3.638c0,.794,1.085,1.641,2.9,2.266a23.972,23.972,0,0,0,7.5,1.065,23.931,23.931,0,0,0,7.5-1.066c1.844-.635,2.9-1.464,2.9-2.273V54.93h.746v3.108c0,1.164-1.209,2.222-3.405,2.978A24.683,24.683,0,0,1,30.822,62.123Z" transform="translate(7.351 19.849)" fill="#002b47"/>
                    <path id="Path_19176" data-name="Path 19176" d="M33.161,52.875v1.432a2.17,2.17,0,0,1-.009.228,1.405,1.405,0,0,1-.041.256,1.548,1.548,0,0,1-.525.855,2.612,2.612,0,0,1-1.016.5,5.178,5.178,0,0,1-1.358.165,4.462,4.462,0,0,1-1.851-.344,1.772,1.772,0,0,1-1-1.046,1.492,1.492,0,0,1-.073-.3,2.611,2.611,0,0,1-.017-.321V52.874h1.415v1.391a1.631,1.631,0,0,0,.012.187.715.715,0,0,0,.05.192.8.8,0,0,0,.336.389,1.639,1.639,0,0,0,.537.2,3.068,3.068,0,0,0,.591.06,3.107,3.107,0,0,0,.593-.06,1.679,1.679,0,0,0,.545-.2.763.763,0,0,0,.333-.389.711.711,0,0,0,.048-.192c.006-.07.009-.132.009-.187v-1.39Zm-5.892,0,.378,1.09L24.1,56.605v-1.4Zm2.371.029h1.145v4.117H29.64Zm2.376,1.278h1.145V57H32.016Z" transform="translate(8.795 19.29)" fill="#002b47"/>
                    <path id="Path_19177" data-name="Path 19177" d="M40.406,50.89c0,2.046-4.824,3.7-10.773,3.7s-10.772-1.659-10.772-3.7,4.824-3.7,10.773-3.7,10.773,1.659,10.773,3.7" transform="translate(6.882 17.215)" fill="#3399e8"/>
                    <path id="Path_19178" data-name="Path 19178" d="M40.406,53.033c0,2.046-4.824,3.7-10.773,3.7s-10.772-1.659-10.772-3.7,4.824-3.7,10.773-3.7,10.772,1.658,10.772,3.7" transform="translate(6.882 17.997)" fill="#4a88f5"/>
                    <path id="Ellipse_5680" data-name="Ellipse 5680" d="M10.746-.4A24.725,24.725,0,0,1,18.485.705c2.2.755,3.407,1.811,3.407,2.972s-1.21,2.217-3.407,2.972a24.725,24.725,0,0,1-7.739,1.105A24.725,24.725,0,0,1,3.007,6.649C.81,5.894-.4,4.838-.4,3.677S.81,1.461,3.007.705A24.725,24.725,0,0,1,10.746-.4Zm0,7.408a23.973,23.973,0,0,0,7.5-1.065c1.818-.625,2.9-1.472,2.9-2.266s-1.085-1.641-2.9-2.266a23.973,23.973,0,0,0-7.5-1.065,23.973,23.973,0,0,0-7.5,1.065c-1.818.625-2.9,1.472-2.9,2.266s1.085,1.641,2.9,2.266A23.973,23.973,0,0,0,10.746,7.008Z" transform="translate(25.769 64.427)" fill="#002b47"/>
                    <path id="Path_19179" data-name="Path 19179" d="M29.608,57.615a24.724,24.724,0,0,1-7.739-1.105c-2.2-.755-3.407-1.811-3.407-2.972V49.9h.746v3.638c0,.794,1.085,1.641,2.9,2.266a23.972,23.972,0,0,0,7.5,1.065A23.954,23.954,0,0,0,37.1,55.8c1.818-.625,2.9-1.472,2.9-2.265V50.422h.746v3.116c0,1.16-1.21,2.215-3.407,2.971A24.707,24.707,0,0,1,29.608,57.615Z" transform="translate(6.908 18.205)" fill="#002b47"/>
                    <path id="Path_19180" data-name="Path 19180" d="M31.947,48.366V49.8a2.17,2.17,0,0,1-.009.227,1.387,1.387,0,0,1-.041.256,1.541,1.541,0,0,1-.525.855,2.612,2.612,0,0,1-1.016.5A5.231,5.231,0,0,1,29,51.8a4.464,4.464,0,0,1-1.851-.342,1.778,1.778,0,0,1-1-1.047,1.572,1.572,0,0,1-.073-.3,2.6,2.6,0,0,1-.017-.319V48.366H27.47v1.391a1.593,1.593,0,0,0,.012.187.711.711,0,0,0,.05.194.808.808,0,0,0,.336.389,1.636,1.636,0,0,0,.537.2,3.068,3.068,0,0,0,.591.06,3.13,3.13,0,0,0,.6-.06,1.679,1.679,0,0,0,.543-.2.768.768,0,0,0,.333-.389.661.661,0,0,0,.048-.194c.006-.068.009-.131.009-.187V48.366Zm-5.892,0,.378,1.09L22.889,52.1V50.7Zm2.371.03h1.145v4.117H28.426ZM30.8,49.674h1.145v2.814H30.8Z" transform="translate(8.352 17.646)" fill="#002b47"/>
                    <path id="Path_19181" data-name="Path 19181" d="M41.62,46.733c0,2.046-4.824,3.7-10.773,3.7s-10.772-1.663-10.772-3.7,4.824-3.7,10.773-3.7,10.772,1.652,10.772,3.7" transform="translate(7.324 15.696)" fill="#3399e8"/>
                    <path id="Path_19182" data-name="Path 19182" d="M41.62,48.87c0,2.046-4.824,3.7-10.773,3.7s-10.772-1.659-10.772-3.7,4.824-3.7,10.773-3.7,10.773,1.659,10.773,3.7" transform="translate(7.324 16.478)" fill="#4a88f5"/>
                    <path id="Ellipse_5681" data-name="Ellipse 5681" d="M10.746-.4A24.725,24.725,0,0,1,18.485.705c2.2.755,3.407,1.811,3.407,2.972s-1.21,2.217-3.407,2.972a24.725,24.725,0,0,1-7.739,1.105A24.725,24.725,0,0,1,3.007,6.649C.81,5.894-.4,4.838-.4,3.677S.81,1.461,3.007.705A24.725,24.725,0,0,1,10.746-.4Zm0,7.408a23.973,23.973,0,0,0,7.5-1.065c1.818-.625,2.9-1.472,2.9-2.266s-1.085-1.641-2.9-2.266a23.973,23.973,0,0,0-7.5-1.065,23.973,23.973,0,0,0-7.5,1.065c-1.818.625-2.9,1.472-2.9,2.266s1.085,1.641,2.9,2.266A23.973,23.973,0,0,0,10.746,7.008Z" transform="translate(27.426 58.748)" fill="#4a88f5"/>
                    <path id="Path_19183" data-name="Path 19183" d="M30.822,53.453a24.725,24.725,0,0,1-7.74-1.105c-2.2-.755-3.407-1.811-3.407-2.972V45.738h.746v3.638c0,.794,1.085,1.641,2.9,2.266a23.972,23.972,0,0,0,7.5,1.065,23.965,23.965,0,0,0,7.5-1.065c1.817-.625,2.9-1.472,2.9-2.266V46.262h.746v3.114c0,1.161-1.209,2.217-3.406,2.972A24.717,24.717,0,0,1,30.822,53.453Z" transform="translate(7.351 16.687)" fill="#002b47"/>
                    <path id="Path_19184" data-name="Path 19184" d="M33.161,44.2v1.437a2.145,2.145,0,0,1-.009.227,1.387,1.387,0,0,1-.041.256,1.548,1.548,0,0,1-.525.855,2.612,2.612,0,0,1-1.016.5,5.237,5.237,0,0,1-1.358.165,4.464,4.464,0,0,1-1.851-.344,1.772,1.772,0,0,1-1-1.047,1.465,1.465,0,0,1-.073-.3,2.625,2.625,0,0,1-.017-.321V44.2h1.415v1.391a1.594,1.594,0,0,0,.012.187.712.712,0,0,0,.05.194.8.8,0,0,0,.336.389,1.637,1.637,0,0,0,.537.2,2.968,2.968,0,0,0,.591.062,3.006,3.006,0,0,0,.593-.062,1.679,1.679,0,0,0,.545-.2.763.763,0,0,0,.333-.389.708.708,0,0,0,.048-.194c.006-.068.009-.131.009-.187V44.2Zm-5.892,0,.378,1.092L24.1,47.93v-1.4Zm2.371.03h1.145v4.117H29.64Zm2.376,1.278h1.145v2.814H32.016Z" transform="translate(8.795 16.127)" fill="#002b47"/>
                    <path id="Path_19185" data-name="Path 19185" d="M62.4,59.733c0,2.048-4.824,3.705-10.773,3.705S40.849,61.78,40.849,59.733s4.824-3.7,10.774-3.7S62.4,57.689,62.4,59.733" transform="translate(14.903 20.442)" fill="#4a88f5"/>
                    <path id="Path_19186" data-name="Path 19186" d="M62.4,61.876c0,2.046-4.824,3.7-10.773,3.7s-10.774-1.659-10.774-3.7,4.824-3.7,10.774-3.7S62.4,59.831,62.4,61.876" transform="translate(14.903 21.223)" fill="#3399e8"/>
                    <path id="Ellipse_5682" data-name="Ellipse 5682" d="M10.746-.4A24.725,24.725,0,0,1,18.485.705c2.2.755,3.407,1.811,3.407,2.972s-1.21,2.217-3.407,2.972a24.725,24.725,0,0,1-7.739,1.105A24.725,24.725,0,0,1,3.007,6.649C.81,5.894-.4,4.838-.4,3.677S.81,1.461,3.007.705A24.725,24.725,0,0,1,10.746-.4Zm0,7.408a23.973,23.973,0,0,0,7.5-1.065c1.818-.625,2.9-1.472,2.9-2.266s-1.085-1.641-2.9-2.266a23.973,23.973,0,0,0-7.5-1.065,23.973,23.973,0,0,0-7.5,1.065c-1.818.625-2.9,1.472-2.9,2.266s1.085,1.641,2.9,2.266A23.973,23.973,0,0,0,10.746,7.008Z" transform="translate(55.779 76.498)" fill="#002b47"/>
                    <path id="Path_19187" data-name="Path 19187" d="M51.6,66.458a24.725,24.725,0,0,1-7.739-1.105c-2.2-.755-3.407-1.811-3.407-2.972V58.743H41.2v3.638c0,.794,1.085,1.641,2.9,2.266a23.972,23.972,0,0,0,7.5,1.065,23.972,23.972,0,0,0,7.5-1.065c1.818-.625,2.9-1.472,2.9-2.266V59.263h.746v3.118c0,1.161-1.21,2.217-3.407,2.972A24.725,24.725,0,0,1,51.6,66.458Z" transform="translate(14.93 21.431)" fill="#002b47"/>
                    <path id="Path_19188" data-name="Path 19188" d="M53.935,57.21v1.433a2.172,2.172,0,0,1-.009.227,1.3,1.3,0,0,1-.041.256,1.534,1.534,0,0,1-.525.855,2.6,2.6,0,0,1-1.014.5,5.238,5.238,0,0,1-1.358.164,4.489,4.489,0,0,1-1.853-.342,1.778,1.778,0,0,1-1-1.047,1.711,1.711,0,0,1-.073-.3,2.947,2.947,0,0,1-.015-.319V57.21h1.414V58.6a1.611,1.611,0,0,0,.012.187.781.781,0,0,0,.052.194.8.8,0,0,0,.336.389,1.625,1.625,0,0,0,.537.2,3.047,3.047,0,0,0,.591.06,3.107,3.107,0,0,0,.593-.06,1.679,1.679,0,0,0,.545-.2.781.781,0,0,0,.329-.385.671.671,0,0,0,.047-.194c.007-.068.009-.132.009-.187V57.21Zm-5.891,0,.373,1.09-3.539,2.64v-1.4Zm2.369.03h1.145v4.117H50.413Zm2.378,1.278h1.145v2.814H52.791Z" transform="translate(16.374 20.872)" fill="#002b47"/>
                    <path id="Path_19189" data-name="Path 19189" d="M64.3,55.4c0,2.046-4.824,3.7-10.773,3.7s-10.773-1.659-10.773-3.7,4.824-3.7,10.773-3.7S64.3,53.353,64.3,55.4" transform="translate(15.599 18.859)" fill="#4a88f5"/>
                    <path id="Path_19190" data-name="Path 19190" d="M64.3,57.54c0,2.046-4.824,3.705-10.773,3.705S42.757,59.586,42.757,57.54s4.824-3.7,10.773-3.7S64.3,55.5,64.3,57.54" transform="translate(15.599 19.642)" fill="#4a88f5"/>
                    <path id="Ellipse_5683" data-name="Ellipse 5683" d="M10.746-.4A24.725,24.725,0,0,1,18.485.705c2.2.755,3.407,1.811,3.407,2.972s-1.21,2.217-3.407,2.972a24.725,24.725,0,0,1-7.739,1.105A24.725,24.725,0,0,1,3.007,6.649C.81,5.894-.4,4.838-.4,3.677S.81,1.461,3.007.705A24.725,24.725,0,0,1,10.746-.4Zm0,7.408a23.973,23.973,0,0,0,7.5-1.065c1.818-.625,2.9-1.472,2.9-2.266s-1.085-1.641-2.9-2.266a23.973,23.973,0,0,0-7.5-1.065,23.973,23.973,0,0,0-7.5,1.065c-1.818.625-2.9,1.472-2.9,2.266s1.085,1.641,2.9,2.266A23.973,23.973,0,0,0,10.746,7.008Z" transform="translate(58.383 70.581)" fill="#002b47"/>
                    <path id="Path_19191" data-name="Path 19191" d="M53.5,62.123a24.724,24.724,0,0,1-7.739-1.105c-2.2-.755-3.407-1.811-3.407-2.972V54.408H43.1v3.638c0,.794,1.085,1.641,2.9,2.266a23.972,23.972,0,0,0,7.5,1.065A23.934,23.934,0,0,0,61,60.311c1.845-.635,2.9-1.464,2.9-2.273V54.93h.746v3.108c0,1.164-1.21,2.222-3.407,2.978A24.687,24.687,0,0,1,53.5,62.123Z" transform="translate(15.626 19.849)" fill="#002b47"/>
                    <path id="Path_19192" data-name="Path 19192" d="M55.847,52.875v1.432a2.169,2.169,0,0,1-.009.228,1.406,1.406,0,0,1-.041.256,1.549,1.549,0,0,1-.525.855,2.612,2.612,0,0,1-1.016.5,5.178,5.178,0,0,1-1.358.165,4.462,4.462,0,0,1-1.851-.344,1.772,1.772,0,0,1-1-1.046,1.492,1.492,0,0,1-.073-.3,2.612,2.612,0,0,1-.017-.321V52.874H51.37v1.391a1.627,1.627,0,0,0,.012.187.715.715,0,0,0,.05.192.8.8,0,0,0,.336.389,1.638,1.638,0,0,0,.537.2,3.068,3.068,0,0,0,.591.06,3.131,3.131,0,0,0,.6-.06,1.679,1.679,0,0,0,.543-.2.763.763,0,0,0,.333-.389.711.711,0,0,0,.048-.192c.006-.07.009-.132.009-.187v-1.39Zm-5.892,0,.378,1.09-3.545,2.64v-1.4Zm2.371.029h1.145v4.117h-1.15ZM54.7,54.182h1.145V57H54.7Z" transform="translate(17.071 19.29)" fill="#002b47"/>
                    <path id="Path_19193" data-name="Path 19193" d="M63.088,50.89c0,2.046-4.824,3.7-10.773,3.7s-10.772-1.659-10.772-3.7,4.824-3.7,10.773-3.7,10.772,1.659,10.772,3.7" transform="translate(15.156 17.215)" fill="#3399e8"/>
                    <path id="Path_19194" data-name="Path 19194" d="M63.088,53.033c0,2.046-4.824,3.7-10.773,3.7s-10.772-1.659-10.772-3.7,4.824-3.7,10.773-3.7,10.772,1.658,10.772,3.7" transform="translate(15.156 17.997)" fill="#3399e8"/>
                    <path id="Ellipse_5684" data-name="Ellipse 5684" d="M10.746-.4A24.725,24.725,0,0,1,18.485.705c2.2.755,3.407,1.811,3.407,2.972s-1.21,2.217-3.407,2.972a24.725,24.725,0,0,1-7.739,1.105A24.725,24.725,0,0,1,3.007,6.649C.81,5.894-.4,4.838-.4,3.677S.81,1.461,3.007.705A24.725,24.725,0,0,1,10.746-.4Zm0,7.408a23.973,23.973,0,0,0,7.5-1.065c1.818-.625,2.9-1.472,2.9-2.266s-1.085-1.641-2.9-2.266a23.973,23.973,0,0,0-7.5-1.065,23.973,23.973,0,0,0-7.5,1.065c-1.818.625-2.9,1.472-2.9,2.266s1.085,1.641,2.9,2.266A23.973,23.973,0,0,0,10.746,7.008Z" transform="translate(56.726 64.427)" fill="#002b47"/>
                    <path id="Path_19195" data-name="Path 19195" d="M52.29,57.615a24.724,24.724,0,0,1-7.739-1.105c-2.2-.755-3.407-1.811-3.407-2.972V49.9h.746v3.638c0,.794,1.085,1.641,2.9,2.266a23.972,23.972,0,0,0,7.5,1.065,23.954,23.954,0,0,0,7.5-1.066c1.818-.625,2.9-1.472,2.9-2.265V50.422h.746v3.116c0,1.16-1.21,2.215-3.407,2.971A24.707,24.707,0,0,1,52.29,57.615Z" transform="translate(15.183 18.205)" fill="#002b47"/>
                    <path id="Path_19196" data-name="Path 19196" d="M54.629,48.366V49.8a2.172,2.172,0,0,1-.009.227,1.387,1.387,0,0,1-.041.256,1.541,1.541,0,0,1-.525.855,2.612,2.612,0,0,1-1.016.5,5.231,5.231,0,0,1-1.358.164,4.464,4.464,0,0,1-1.851-.342,1.778,1.778,0,0,1-1-1.047,1.571,1.571,0,0,1-.073-.3,2.637,2.637,0,0,1-.015-.319V48.366h1.414v1.391a1.592,1.592,0,0,0,.012.187.712.712,0,0,0,.05.194.808.808,0,0,0,.336.389,1.648,1.648,0,0,0,.537.2,3.067,3.067,0,0,0,.591.06,3.131,3.131,0,0,0,.6-.06,1.679,1.679,0,0,0,.543-.2.768.768,0,0,0,.333-.389.662.662,0,0,0,.048-.194c.006-.068.009-.131.009-.187V48.366Zm-5.891,0,.373,1.09L45.567,52.1V50.7Zm2.369.03h1.145v4.117H51.108Zm2.376,1.278h1.145v2.814H53.484Z" transform="translate(16.627 17.646)" fill="#002b47"/>
                    <path id="Path_19197" data-name="Path 19197" d="M64.3,46.733c0,2.046-4.824,3.7-10.773,3.7s-10.772-1.663-10.772-3.7,4.824-3.7,10.773-3.7S64.3,44.681,64.3,46.733" transform="translate(15.599 15.696)" fill="#4a88f5"/>
                    <path id="Path_19198" data-name="Path 19198" d="M64.3,48.87c0,2.046-4.824,3.7-10.773,3.7s-10.772-1.659-10.772-3.7,4.824-3.7,10.773-3.7S64.3,46.825,64.3,48.87" transform="translate(15.599 16.478)" fill="#4a88f5"/>
                    <path id="Ellipse_5685" data-name="Ellipse 5685" d="M10.746-.4A24.725,24.725,0,0,1,18.485.705c2.2.755,3.407,1.811,3.407,2.972s-1.21,2.217-3.407,2.972a24.725,24.725,0,0,1-7.739,1.105A24.725,24.725,0,0,1,3.007,6.649C.81,5.894-.4,4.838-.4,3.677S.81,1.461,3.007.705A24.725,24.725,0,0,1,10.746-.4Zm0,7.408a23.973,23.973,0,0,0,7.5-1.065c1.818-.625,2.9-1.472,2.9-2.266s-1.085-1.641-2.9-2.266a23.973,23.973,0,0,0-7.5-1.065,23.973,23.973,0,0,0-7.5,1.065c-1.818.625-2.9,1.472-2.9,2.266s1.085,1.641,2.9,2.266A23.973,23.973,0,0,0,10.746,7.008Z" transform="translate(58.383 58.748)" fill="#002b47"/>
                    <path id="Path_19199" data-name="Path 19199" d="M53.5,53.453a24.724,24.724,0,0,1-7.739-1.105c-2.2-.755-3.407-1.811-3.407-2.972V45.738H43.1v3.638c0,.794,1.085,1.641,2.9,2.266a23.972,23.972,0,0,0,7.5,1.065A23.972,23.972,0,0,0,61,51.642c1.818-.625,2.9-1.472,2.9-2.266V46.262h.746v3.114c0,1.161-1.21,2.217-3.407,2.972A24.724,24.724,0,0,1,53.5,53.453Z" transform="translate(15.626 16.687)" fill="#002b47"/>
                    <path id="Path_19200" data-name="Path 19200" d="M55.847,44.2v1.437a2.144,2.144,0,0,1-.009.227,1.386,1.386,0,0,1-.041.256,1.548,1.548,0,0,1-.525.855,2.612,2.612,0,0,1-1.016.5,5.237,5.237,0,0,1-1.358.165,4.464,4.464,0,0,1-1.851-.344,1.772,1.772,0,0,1-1.007-1.047,1.466,1.466,0,0,1-.073-.3,2.625,2.625,0,0,1-.017-.321V44.2h1.42v1.391a1.591,1.591,0,0,0,.012.187.711.711,0,0,0,.05.194.8.8,0,0,0,.336.389,1.636,1.636,0,0,0,.537.2,2.968,2.968,0,0,0,.591.062,3.029,3.029,0,0,0,.6-.062,1.679,1.679,0,0,0,.543-.2.763.763,0,0,0,.333-.389.708.708,0,0,0,.048-.194c.006-.068.009-.131.009-.187V44.2Zm-5.892,0,.378,1.092L46.789,47.93v-1.4Zm2.371.03h1.145v4.117h-1.15ZM54.7,45.508h1.145v2.814H54.7Z" transform="translate(17.071 16.127)" fill="#002b47"/>
                    <path id="Path_19201" data-name="Path 19201" d="M63.088,42.6c0,2.046-4.824,3.7-10.773,3.7s-10.773-1.659-10.773-3.7,4.824-3.7,10.774-3.7,10.772,1.656,10.772,3.7" transform="translate(15.156 14.19)" fill="#fedd31"/>
                    <path id="Path_19202" data-name="Path 19202" d="M63.088,44.743c0,2.046-4.824,3.7-10.773,3.7s-10.772-1.661-10.772-3.7,4.824-3.7,10.773-3.7,10.772,1.659,10.772,3.7" transform="translate(15.156 14.972)" fill="#3399e8"/>
                    <ellipse id="Ellipse_5686" data-name="Ellipse 5686" cx="10.773" cy="3.704" rx="10.773" ry="3.704" transform="translate(56.699 53.088)" fill="#4a88f5"/>
                    <path id="Ellipse_5686_-_Outline" data-name="Ellipse 5686 - Outline" d="M10.746-.4A24.725,24.725,0,0,1,18.485.705c2.2.755,3.407,1.811,3.407,2.972s-1.21,2.217-3.407,2.972a24.725,24.725,0,0,1-7.739,1.105A24.725,24.725,0,0,1,3.007,6.649C.81,5.894-.4,4.838-.4,3.677S.81,1.461,3.007.705A24.725,24.725,0,0,1,10.746-.4Zm0,7.408a23.973,23.973,0,0,0,7.5-1.065c1.818-.625,2.9-1.472,2.9-2.266s-1.085-1.641-2.9-2.266a23.973,23.973,0,0,0-7.5-1.065,23.973,23.973,0,0,0-7.5,1.065c-1.818.625-2.9,1.472-2.9,2.266s1.085,1.641,2.9,2.266A23.973,23.973,0,0,0,10.746,7.008Z" transform="translate(56.726 53.114)" fill="#002b47"/>
                    <path id="Path_19203" data-name="Path 19203" d="M52.29,49.326a24.724,24.724,0,0,1-7.739-1.105c-2.2-.755-3.407-1.811-3.407-2.972V41.611h.746v3.638c0,.794,1.085,1.641,2.9,2.266a23.972,23.972,0,0,0,7.5,1.065,23.935,23.935,0,0,0,7.5-1.066c1.818-.626,2.9-1.474,2.9-2.268V42.133h.746v3.112c0,1.161-1.21,2.217-3.407,2.974A24.688,24.688,0,0,1,52.29,49.326Z" transform="translate(15.183 15.181)" fill="#002b47"/>
                    <path id="Path_19204" data-name="Path 19204" d="M54.629,40.077V41.51a2.163,2.163,0,0,1-.009.227,1.387,1.387,0,0,1-.041.256,1.541,1.541,0,0,1-.525.855,2.612,2.612,0,0,1-1.016.5,5.229,5.229,0,0,1-1.358.165,4.462,4.462,0,0,1-1.851-.344,1.778,1.778,0,0,1-1-1.047,1.561,1.561,0,0,1-.073-.3,2.675,2.675,0,0,1-.015-.321V40.077h1.414v1.391a1.592,1.592,0,0,0,.012.187.712.712,0,0,0,.05.194.8.8,0,0,0,.336.389,1.648,1.648,0,0,0,.537.2,2.965,2.965,0,0,0,.591.06,3.025,3.025,0,0,0,.6-.06,1.679,1.679,0,0,0,.543-.2.763.763,0,0,0,.333-.389.662.662,0,0,0,.048-.194c.006-.068.009-.131.009-.187V40.077Zm-5.891,0,.373,1.092-3.545,2.638v-1.4Zm2.369.03h1.145v4.117H51.108Zm2.376,1.278h1.145V44.2H53.484Z" transform="translate(16.627 14.622)" fill="#002b47"/>
                    <path id="Path_19205" data-name="Path 19205" d="M64.3,38.439c0,2.046-4.824,3.7-10.773,3.7s-10.772-1.658-10.772-3.7,4.824-3.7,10.773-3.7S64.3,36.394,64.3,38.439" transform="translate(15.599 12.673)" fill="#3399e8"/>
                    <path id="Path_19206" data-name="Path 19206" d="M64.3,40.581c0,2.046-4.824,3.7-10.773,3.7s-10.773-1.659-10.773-3.7,4.824-3.7,10.773-3.7S64.3,38.536,64.3,40.581" transform="translate(15.599 13.454)" fill="#4a88f5"/>
                    <path id="Ellipse_5687" data-name="Ellipse 5687" d="M10.746-.4A24.725,24.725,0,0,1,18.485.705c2.2.755,3.407,1.811,3.407,2.972s-1.21,2.217-3.407,2.972a24.725,24.725,0,0,1-7.739,1.105A24.725,24.725,0,0,1,3.007,6.649C.81,5.894-.4,4.838-.4,3.677S.81,1.461,3.007.705A24.725,24.725,0,0,1,10.746-.4Zm0,7.408a23.973,23.973,0,0,0,7.5-1.065c1.818-.625,2.9-1.472,2.9-2.266s-1.085-1.641-2.9-2.266a23.973,23.973,0,0,0-7.5-1.065,23.973,23.973,0,0,0-7.5,1.065c-1.818.625-2.9,1.472-2.9,2.266s1.085,1.641,2.9,2.266A23.973,23.973,0,0,0,10.746,7.008Z" transform="translate(58.383 47.435)" fill="#002b47"/>
                    <path id="Path_19207" data-name="Path 19207" d="M53.5,45.164a24.724,24.724,0,0,1-7.739-1.105c-2.2-.755-3.407-1.811-3.407-2.972V37.449H43.1v3.638c0,.794,1.085,1.641,2.9,2.266a23.972,23.972,0,0,0,7.5,1.065A23.972,23.972,0,0,0,61,43.353c1.818-.625,2.9-1.472,2.9-2.266V37.971h.746v3.116c0,1.161-1.21,2.217-3.407,2.972A24.724,24.724,0,0,1,53.5,45.164Z" transform="translate(15.626 13.663)" fill="#002b47"/>
                    <path id="Path_19208" data-name="Path 19208" d="M55.847,35.916v1.432a2.144,2.144,0,0,1-.009.227,1.386,1.386,0,0,1-.041.256,1.548,1.548,0,0,1-.525.855,2.612,2.612,0,0,1-1.016.5,5.237,5.237,0,0,1-1.358.165,4.462,4.462,0,0,1-1.851-.344,1.772,1.772,0,0,1-1-1.047,1.465,1.465,0,0,1-.073-.3,2.624,2.624,0,0,1-.017-.321V35.917H51.37v1.389a1.591,1.591,0,0,0,.012.187.711.711,0,0,0,.05.194.8.8,0,0,0,.336.389,1.637,1.637,0,0,0,.537.2,2.967,2.967,0,0,0,.591.062,3.028,3.028,0,0,0,.6-.062,1.679,1.679,0,0,0,.543-.2.763.763,0,0,0,.333-.389.708.708,0,0,0,.048-.194c.006-.068.009-.131.009-.187v-1.39Zm-5.892,0,.378,1.09-3.545,2.638v-1.4Zm2.371.029h1.145v4.117h-1.15ZM54.7,37.223h1.145v2.814H54.7Z" transform="translate(17.071 13.104)" fill="#002b47"/>
                    <path id="Path_19209" data-name="Path 19209" d="M62.4,34.312c0,2.046-4.824,3.7-10.773,3.7s-10.774-1.659-10.774-3.7,4.824-3.7,10.774-3.7S62.4,32.267,62.4,34.312" transform="translate(14.903 11.167)" fill="#3399e8"/>
                    <path id="Path_19210" data-name="Path 19210" d="M62.4,36.454c0,2.046-4.824,3.7-10.773,3.7s-10.774-1.659-10.774-3.7,4.824-3.7,10.775-3.7S62.4,34.409,62.4,36.454" transform="translate(14.903 11.948)" fill="#4a88f5"/>
                    <path id="Ellipse_5688" data-name="Ellipse 5688" d="M10.746-.4A24.725,24.725,0,0,1,18.485.705c2.2.755,3.407,1.811,3.407,2.972s-1.21,2.217-3.407,2.972a24.725,24.725,0,0,1-7.739,1.105A24.725,24.725,0,0,1,3.007,6.649C.81,5.894-.4,4.838-.4,3.677S.81,1.461,3.007.705A24.725,24.725,0,0,1,10.746-.4Zm0,7.408a23.973,23.973,0,0,0,7.5-1.065c1.818-.625,2.9-1.472,2.9-2.266s-1.085-1.641-2.9-2.266a23.973,23.973,0,0,0-7.5-1.065,23.973,23.973,0,0,0-7.5,1.065c-1.818.625-2.9,1.472-2.9,2.266s1.085,1.641,2.9,2.266A23.973,23.973,0,0,0,10.746,7.008Z" transform="translate(55.779 41.801)" fill="#002b47"/>
                    <path id="Path_19211" data-name="Path 19211" d="M51.6,41.037a24.724,24.724,0,0,1-7.739-1.105c-2.2-.755-3.407-1.811-3.407-2.972V33.322H41.2V36.96c0,.794,1.085,1.641,2.9,2.266a23.972,23.972,0,0,0,7.5,1.065,23.972,23.972,0,0,0,7.5-1.065C60.91,38.6,62,37.754,62,36.96V33.844h.746V36.96c0,1.161-1.21,2.217-3.407,2.972A24.724,24.724,0,0,1,51.6,41.037Z" transform="translate(14.93 12.157)" fill="#002b47"/>
                    <path id="Path_19212" data-name="Path 19212" d="M53.935,31.788v1.433a2.163,2.163,0,0,1-.009.227,1.28,1.28,0,0,1-.041.256,1.534,1.534,0,0,1-.525.855,2.6,2.6,0,0,1-1.014.5,5.237,5.237,0,0,1-1.358.165,4.465,4.465,0,0,1-1.853-.344,1.778,1.778,0,0,1-1-1.047,1.671,1.671,0,0,1-.073-.3,2.977,2.977,0,0,1-.015-.321V31.788h1.414v1.391a1.6,1.6,0,0,0,.012.187.766.766,0,0,0,.052.194.8.8,0,0,0,.336.389,1.625,1.625,0,0,0,.537.2,2.944,2.944,0,0,0,.591.06,3,3,0,0,0,.593-.06,1.679,1.679,0,0,0,.545-.2.775.775,0,0,0,.329-.386.66.66,0,0,0,.047-.194q.009-.093.009-.187V31.788Zm-5.891,0,.373,1.092-3.539,2.638v-1.4Zm2.369.03h1.145v4.117H50.413ZM52.791,33.1h1.145V35.91H52.791Z" transform="translate(16.374 11.597)" fill="#002b47"/>
                    <path id="Path_19213" data-name="Path 19213" d="M64.3,29.976c0,2.046-4.824,3.705-10.773,3.705s-10.773-1.659-10.773-3.705,4.824-3.7,10.773-3.7S64.3,27.931,64.3,29.976" transform="translate(15.599 9.585)" fill="#4a88f5"/>
                    <path id="Path_19214" data-name="Path 19214" d="M64.3,32.119c0,2.046-4.824,3.7-10.773,3.7s-10.773-1.659-10.773-3.7,4.824-3.7,10.773-3.7S64.3,30.074,64.3,32.119" transform="translate(15.599 10.367)" fill="#3399e8"/>
                    <path id="Ellipse_5689" data-name="Ellipse 5689" d="M10.746-.4A24.725,24.725,0,0,1,18.485.705c2.2.755,3.407,1.811,3.407,2.972s-1.21,2.217-3.407,2.972a24.725,24.725,0,0,1-7.739,1.105A24.725,24.725,0,0,1,3.007,6.649C.81,5.894-.4,4.838-.4,3.677S.81,1.461,3.007.705A24.725,24.725,0,0,1,10.746-.4Zm0,7.408a23.973,23.973,0,0,0,7.5-1.065c1.818-.625,2.9-1.472,2.9-2.266s-1.085-1.641-2.9-2.266a23.973,23.973,0,0,0-7.5-1.065,23.973,23.973,0,0,0-7.5,1.065c-1.818.625-2.9,1.472-2.9,2.266s1.085,1.641,2.9,2.266A23.973,23.973,0,0,0,10.746,7.008Z" transform="translate(58.383 35.885)" fill="#002b47"/>
                    <path id="Path_19215" data-name="Path 19215" d="M53.5,36.7A24.716,24.716,0,0,1,45.764,35.6c-2.2-.756-3.407-1.811-3.407-2.972V28.986H43.1v3.638c0,.794,1.085,1.641,2.9,2.267a23.964,23.964,0,0,0,7.5,1.065A23.964,23.964,0,0,0,61,34.891c1.818-.625,2.9-1.473,2.9-2.267V29.508h.746v3.116c0,1.161-1.21,2.217-3.407,2.972A24.716,24.716,0,0,1,53.5,36.7Z" transform="translate(15.626 10.575)" fill="#002b47"/>
                    <path id="Path_19216" data-name="Path 19216" d="M55.847,27.453v1.433a2.171,2.171,0,0,1-.009.227,1.406,1.406,0,0,1-.041.256,1.548,1.548,0,0,1-.525.855,2.612,2.612,0,0,1-1.016.5,5.239,5.239,0,0,1-1.358.164,4.486,4.486,0,0,1-1.851-.342,1.772,1.772,0,0,1-1-1.047,1.493,1.493,0,0,1-.073-.3,2.6,2.6,0,0,1-.017-.319v-1.43H51.37v1.391a1.613,1.613,0,0,0,.012.187.724.724,0,0,0,.05.194.808.808,0,0,0,.336.389,1.637,1.637,0,0,0,.537.2,3.069,3.069,0,0,0,.591.06,3.131,3.131,0,0,0,.6-.06,1.679,1.679,0,0,0,.543-.2.768.768,0,0,0,.333-.389.72.72,0,0,0,.048-.194c.006-.068.009-.132.009-.187V27.453Zm-5.892,0,.378,1.09-3.545,2.64v-1.4Zm2.371.03h1.145V31.6h-1.15ZM54.7,28.761h1.145v2.814H54.7Z" transform="translate(17.071 10.016)" fill="#002b47"/>
                  </g>
                </g>
              </g>
            </g>
          </g>
        </g>
      </g>
    </g>
  </g>
</svg>
