<svg xmlns="http://www.w3.org/2000/svg" xmlns:xlink="http://www.w3.org/1999/xlink" width="282" height="270" viewBox="0 0 282 270">
  <defs>
    <clipPath id="clip-path">
      <rect id="Rectangle_32382" data-name="Rectangle 32382" width="250" height="250"/>
    </clipPath>
    <clipPath id="clip-path-2">
      <path id="Rectangle_27832" data-name="Rectangle 27832" d="M0,0H244.286V171H0Z" fill="none"/>
    </clipPath>
    <clipPath id="clip-path-4">
      <path id="Rectangle_27811" data-name="Rectangle 27811" d="M0,0H103.34V148.522H0Z" fill="none"/>
    </clipPath>
    <clipPath id="clip-path-5">
      <path id="Rectangle_27812" data-name="Rectangle 27812" d="M0,0H54.978V47.724H0Z" fill="none"/>
    </clipPath>
    <clipPath id="clip-path-6">
      <path id="Path_19286" data-name="Path 19286" d="M88.414,52l46.749-.064L143.392,99.6l-46.749.063Z" transform="translate(-88.414 -51.931)" fill="none"/>
    </clipPath>
    <clipPath id="clip-path-7">
      <path id="Rectangle_27813" data-name="Rectangle 27813" d="M0,0H6.7V5.867H0Z" fill="none"/>
    </clipPath>
    <clipPath id="clip-path-8">
      <path id="Path_19295" data-name="Path 19295" d="M102.759,71.663l5.692-.008,1.011,5.858-5.692.008Z" transform="translate(-102.759 -71.655)" fill="none"/>
    </clipPath>
    <clipPath id="clip-path-9">
      <path id="Rectangle_27814" data-name="Rectangle 27814" d="M0,0H6.7V5.868H0Z" fill="none"/>
    </clipPath>
    <clipPath id="clip-path-10">
      <path id="Path_19298" data-name="Path 19298" d="M113.288,71.648l5.693-.008,1.011,5.859-5.693.008Z" transform="translate(-113.288 -71.64)" fill="none"/>
    </clipPath>
    <clipPath id="clip-path-12">
      <path id="Path_19301" data-name="Path 19301" d="M123.647,71.634l5.692-.008,1.012,5.859-5.693.008Z" transform="translate(-123.647 -71.626)" fill="none"/>
    </clipPath>
    <clipPath id="clip-path-14">
      <path id="Path_19304" data-name="Path 19304" d="M105.018,84.772l5.693-.008,1.011,5.858-5.693.008Z" transform="translate(-105.018 -84.764)" fill="none"/>
    </clipPath>
    <clipPath id="clip-path-16">
      <path id="Path_19307" data-name="Path 19307" d="M115.548,84.757l5.689-.008,1.011,5.859-5.692.008Z" transform="translate(-115.548 -84.749)" fill="none"/>
    </clipPath>
    <clipPath id="clip-path-18">
      <path id="Path_19310" data-name="Path 19310" d="M125.906,84.743l5.693-.008,1.011,5.859-5.693.008Z" transform="translate(-125.906 -84.735)" fill="none"/>
    </clipPath>
    <clipPath id="clip-path-20">
      <path id="Path_19313" data-name="Path 19313" d="M107.277,97.881l5.693-.008,1.011,5.858-5.693.008Z" transform="translate(-107.277 -97.873)" fill="none"/>
    </clipPath>
    <clipPath id="clip-path-22">
      <path id="Path_19316" data-name="Path 19316" d="M117.807,97.866l5.692-.008,1.012,5.859-5.693.008Z" transform="translate(-117.807 -97.858)" fill="none"/>
    </clipPath>
    <clipPath id="clip-path-24">
      <path id="Path_19319" data-name="Path 19319" d="M128.165,97.852l5.693-.008,1.011,5.859-5.692.008Z" transform="translate(-128.165 -97.844)" fill="none"/>
    </clipPath>
    <clipPath id="clip-path-26">
      <path id="Path_19322" data-name="Path 19322" d="M134.688,71.634l5.692-.008,1.012,5.858-5.693.008Z" transform="translate(-134.688 -71.626)" fill="none"/>
    </clipPath>
    <clipPath id="clip-path-28">
      <path id="Path_19325" data-name="Path 19325" d="M136.947,84.743l5.693-.008,1.012,5.859-5.693.008Z" transform="translate(-136.947 -84.735)" fill="none"/>
    </clipPath>
    <clipPath id="clip-path-30">
      <path id="Path_19328" data-name="Path 19328" d="M139.206,97.852l5.693-.008,1.011,5.859-5.692.008Z" transform="translate(-139.206 -97.844)" fill="none"/>
    </clipPath>
    <clipPath id="clip-path-31">
      <path id="Rectangle_27826" data-name="Rectangle 27826" d="M0,0H23.4V25.284H0Z" fill="none"/>
    </clipPath>
    <clipPath id="clip-path-33">
      <path id="Rectangle_27829" data-name="Rectangle 27829" d="M0,0H16.8V18.154H0Z" fill="none"/>
    </clipPath>
    <clipPath id="clip-path-34">
      <path id="Rectangle_27828" data-name="Rectangle 27828" d="M0,0H16.8V18.155H0Z" fill="none"/>
    </clipPath>
    <clipPath id="clip-Artboard_6">
      <rect width="282" height="270"/>
    </clipPath>
  </defs>
  <g id="Artboard_6" data-name="Artboard – 6" clip-path="url(#clip-Artboard_6)">
    <g id="special-exit-value" transform="translate(16 10)" clip-path="url(#clip-path)">
      <g id="Group_31265" data-name="Group 31265" transform="translate(2.857 47)" clip-path="url(#clip-path-2)">
        <g id="Group_31264" data-name="Group 31264">
          <g id="Group_31263" data-name="Group 31263" clip-path="url(#clip-path-2)">
            <g id="Group_31187" data-name="Group 31187" transform="translate(43.881 15.51)" opacity="0.31">
              <g id="Group_31186" data-name="Group 31186">
                <g id="Group_31185" data-name="Group 31185" clip-path="url(#clip-path-4)">
                  <path id="Path_19282" data-name="Path 19282" d="M57.971,26.973,81.382,162.552a7.468,7.468,0,0,0,7,6.113l16.07-.021a4.867,4.867,0,0,0,4.023-1.97l2.471-3.4a4.88,4.88,0,0,1,4.03-1.97l10.191-.014a6.958,6.958,0,0,1,4.335,1.632l4.925,4.046a6.91,6.91,0,0,0,4.335,1.638l16.859-.023c3.283,0,5.474-2.748,4.886-6.136L137.1,26.869a7.469,7.469,0,0,0-7-6.113l-16.86.023a4.915,4.915,0,0,0-3.769,1.643l-3.527,4.055a4.936,4.936,0,0,1-3.767,1.649l-10.192.014a7,7,0,0,1-4.708-1.957L83.633,22.79a7,7,0,0,0-4.7-1.964l-16.07.022c-3.283,0-5.474,2.748-4.89,6.129" transform="translate(-57.574 -20.449)" fill="#fff"/>
                  <path id="Path_19283" data-name="Path 19283" d="M57.971,26.973,81.383,162.552a7.468,7.468,0,0,0,7,6.113l16.07-.021a4.867,4.867,0,0,0,4.023-1.97l2.471-3.4a4.88,4.88,0,0,1,4.03-1.97l10.191-.014a6.958,6.958,0,0,1,4.335,1.632l4.925,4.046a6.91,6.91,0,0,0,4.335,1.638l16.86-.023c3.283,0,5.474-2.748,4.886-6.136L137.1,26.869a7.469,7.469,0,0,0-7-6.113l-16.86.023a4.915,4.915,0,0,0-3.769,1.643l-3.527,4.055a4.936,4.936,0,0,1-3.767,1.649l-10.192.014a7,7,0,0,1-4.708-1.957L83.633,22.79a7,7,0,0,0-4.7-1.964l-16.07.022c-3.277,0-5.47,2.748-4.89,6.125Z" transform="translate(-57.575 -20.449)" fill="none" stroke="#002b47" stroke-miterlimit="10" stroke-width="0.8"/>
                </g>
              </g>
            </g>
            <g id="Group_31192" data-name="Group 31192" transform="translate(67.495 39.573)" opacity="0.2">
              <g id="Group_31191" data-name="Group 31191">
                <g id="Group_31190" data-name="Group 31190" clip-path="url(#clip-path-5)">
                  <g id="Group_31189" data-name="Group 31189">
                    <g id="Group_31188" data-name="Group 31188" clip-path="url(#clip-path-6)">
                      <path id="Path_19284" data-name="Path 19284" d="M140.7,99.351l-40.994.056a3.172,3.172,0,0,1-2.977-2.6l-7.2-41.736a2.1,2.1,0,0,1,2.076-2.6l40.994-.056a3.172,3.172,0,0,1,2.977,2.6l7.206,41.742a2.1,2.1,0,0,1-2.076,2.6" transform="translate(-88.663 -52.046)" fill="#fff"/>
                      <path id="Path_19285" data-name="Path 19285" d="M91.427,51.993l40.994-.056a3.614,3.614,0,0,1,3.386,2.955l7.207,41.742a2.4,2.4,0,0,1-2.367,2.963l-40.994.056A3.615,3.615,0,0,1,96.267,96.7L89.061,54.956a2.4,2.4,0,0,1,2.367-2.963m49.1,46.885a1.813,1.813,0,0,0,1.789-2.242l-7.209-41.742a2.731,2.731,0,0,0-2.562-2.236l-40.994.056a1.812,1.812,0,0,0-1.789,2.241L96.969,96.7a2.731,2.731,0,0,0,2.564,2.237Z" transform="translate(-88.551 -51.932)" fill="#002b47"/>
                    </g>
                  </g>
                </g>
              </g>
            </g>
            <path id="Path_19287" data-name="Path 19287" d="M134.5,63.406l-41,.056a3.172,3.172,0,0,1-2.977-2.6l-1-5.8a2.1,2.1,0,0,1,2.076-2.6l41-.052a3.173,3.173,0,0,1,2.977,2.6l1,5.8a2.1,2.1,0,0,1-2.077,2.6" transform="translate(-21.168 -12.472)" fill="#e52d12"/>
            <path id="Path_19288" data-name="Path 19288" d="M91.424,51.992l40.994-.056a3.616,3.616,0,0,1,3.386,2.957l1,5.8a2.4,2.4,0,0,1-2.367,2.963l-41,.055a3.613,3.613,0,0,1-3.386-2.954l-1-5.8a2.4,2.4,0,0,1,2.367-2.963m42.9,10.94a1.812,1.812,0,0,0,1.789-2.241l-1-5.8a2.729,2.729,0,0,0-2.561-2.235l-41,.056a1.813,1.813,0,0,0-1.785,2.248l1,5.8A2.731,2.731,0,0,0,93.322,63Z" transform="translate(-21.055 -12.359)" fill="#002b47"/>
            <path id="Path_19289" data-name="Path 19289" d="M102.144,54.633a1.951,1.951,0,0,1-1.832-1.6l-.551-3.193a1.3,1.3,0,0,1,1.186-1.679,1.94,1.94,0,0,1,1.89,1.516,1.509,1.509,0,0,1,.027.157l.551,3.194a1.3,1.3,0,0,1-1.277,1.6" transform="translate(-23.591 -11.462)" fill="#e52d12"/>
            <path id="Path_19290" data-name="Path 19290" d="M102.1,54.906a2.392,2.392,0,0,1-2.24-1.954l-.551-3.2a1.584,1.584,0,0,1,1.563-1.96,2.388,2.388,0,0,1,2.24,1.954l.551,3.195a1.586,1.586,0,0,1-1.563,1.96M101,48.517a1,1,0,0,0-.988,1.239l.551,3.195a1.509,1.509,0,0,0,1.415,1.235,1,1,0,0,0,.989-1.238l-.552-3.2A1.512,1.512,0,0,0,101,48.516Z" transform="translate(-23.487 -11.374)" fill="#002b47"/>
            <path id="Path_19291" data-name="Path 19291" d="M136.014,54.587a1.951,1.951,0,0,1-1.832-1.6l-.551-3.193a1.3,1.3,0,0,1,1.186-1.679,1.94,1.94,0,0,1,1.89,1.516,1.5,1.5,0,0,1,.027.157l.551,3.194a1.3,1.3,0,0,1-1.277,1.6" transform="translate(-31.605 -11.451)" fill="#e52d12"/>
            <path id="Path_19292" data-name="Path 19292" d="M135.971,54.859a2.392,2.392,0,0,1-2.24-1.954l-.551-3.2a1.585,1.585,0,0,1,1.562-1.961,2.388,2.388,0,0,1,2.241,1.954l.553,3.2a1.586,1.586,0,0,1-1.563,1.96m-1.108-6.392a1,1,0,0,0-.988,1.239l.551,3.195a1.509,1.509,0,0,0,1.415,1.235,1,1,0,0,0,.989-1.238l-.552-3.2a1.512,1.512,0,0,0-1.415-1.236Z" transform="translate(-31.501 -11.363)" fill="#002b47"/>
            <g id="Group_31197" data-name="Group 31197" transform="translate(78.445 54.603)" opacity="0.2">
              <g id="Group_31196" data-name="Group 31196">
                <g id="Group_31195" data-name="Group 31195" clip-path="url(#clip-path-7)">
                  <g id="Group_31194" data-name="Group 31194">
                    <g id="Group_31193" data-name="Group 31193" clip-path="url(#clip-path-8)">
                      <path id="Path_19293" data-name="Path 19293" d="M108.153,77.269h-2.839a1.35,1.35,0,0,1-1.268-1.105l-.5-2.922a.9.9,0,0,1,.885-1.109h2.84a1.352,1.352,0,0,1,1.268,1.105l.5,2.922a.9.9,0,0,1-.884,1.11" transform="translate(-102.938 -71.769)" fill="#fff"/>
                      <path id="Path_19294" data-name="Path 19294" d="M104.256,71.663h2.837a1.794,1.794,0,0,1,1.683,1.47l.5,2.919a1.191,1.191,0,0,1-1.175,1.473h-2.837a1.792,1.792,0,0,1-1.683-1.47l-.5-2.919a1.191,1.191,0,0,1,1.176-1.473M107.98,76.8a.606.606,0,0,0,.6-.749l-.5-2.919a.916.916,0,0,0-.856-.75h-2.837a.606.606,0,0,0-.6.747h0l.5,2.919a.916.916,0,0,0,.858.747Z" transform="translate(-102.827 -71.657)" fill="#002b47"/>
                    </g>
                  </g>
                </g>
              </g>
            </g>
            <g id="Group_31202" data-name="Group 31202" transform="translate(86.483 54.592)" opacity="0.2">
              <g id="Group_31201" data-name="Group 31201">
                <g id="Group_31200" data-name="Group 31200" clip-path="url(#clip-path-9)">
                  <g id="Group_31199" data-name="Group 31199">
                    <g id="Group_31198" data-name="Group 31198" clip-path="url(#clip-path-10)">
                      <path id="Path_19296" data-name="Path 19296" d="M118.683,77.255h-2.838a1.352,1.352,0,0,1-1.268-1.105l-.5-2.922a.9.9,0,0,1,.884-1.109H117.8a1.351,1.351,0,0,1,1.267,1.106l.5,2.922a.9.9,0,0,1-.884,1.11" transform="translate(-113.467 -71.754)" fill="#fff"/>
                      <path id="Path_19297" data-name="Path 19297" d="M114.786,71.648h2.837a1.794,1.794,0,0,1,1.683,1.47l.5,2.919a1.191,1.191,0,0,1-1.175,1.473H115.8a1.792,1.792,0,0,1-1.683-1.47l-.5-2.919a1.191,1.191,0,0,1,1.176-1.473m3.724,5.135a.606.606,0,0,0,.6-.749l-.5-2.919a.916.916,0,0,0-.856-.75h-2.837a.606.606,0,0,0-.6.747h0l.5,2.919a.916.916,0,0,0,.858.747Z" transform="translate(-113.356 -71.642)" fill="#002b47"/>
                    </g>
                  </g>
                </g>
              </g>
            </g>
            <g id="Group_31207" data-name="Group 31207" transform="translate(94.391 54.581)" opacity="0.2">
              <g id="Group_31206" data-name="Group 31206">
                <g id="Group_31205" data-name="Group 31205" clip-path="url(#clip-path-9)">
                  <g id="Group_31204" data-name="Group 31204">
                    <g id="Group_31203" data-name="Group 31203" clip-path="url(#clip-path-12)">
                      <path id="Path_19299" data-name="Path 19299" d="M129.04,77.242H126.2a1.351,1.351,0,0,1-1.271-1.1l-.5-2.922a.9.9,0,0,1,.885-1.109h2.84a1.352,1.352,0,0,1,1.268,1.105l.5,2.922a.9.9,0,0,1-.884,1.11" transform="translate(-123.825 -71.741)" fill="#fff"/>
                      <path id="Path_19300" data-name="Path 19300" d="M125.144,71.634h2.837a1.794,1.794,0,0,1,1.683,1.47l.5,2.919a1.191,1.191,0,0,1-1.175,1.473h-2.837a1.792,1.792,0,0,1-1.683-1.47l-.5-2.919a1.191,1.191,0,0,1,1.176-1.473m3.726,5.135a.606.606,0,0,0,.6-.749l-.5-2.919a.916.916,0,0,0-.856-.75h-2.837a.606.606,0,0,0-.6.747h0l.5,2.919a.916.916,0,0,0,.858.747Z" transform="translate(-123.715 -71.628)" fill="#002b47"/>
                    </g>
                  </g>
                </g>
              </g>
            </g>
            <g id="Group_31212" data-name="Group 31212" transform="translate(80.17 64.593)" opacity="0.2">
              <g id="Group_31211" data-name="Group 31211">
                <g id="Group_31210" data-name="Group 31210" clip-path="url(#clip-path-7)">
                  <g id="Group_31209" data-name="Group 31209">
                    <g id="Group_31208" data-name="Group 31208" clip-path="url(#clip-path-14)">
                      <path id="Path_19302" data-name="Path 19302" d="M110.412,90.378h-2.839a1.35,1.35,0,0,1-1.268-1.105l-.5-2.922a.9.9,0,0,1,.885-1.109h2.84a1.352,1.352,0,0,1,1.268,1.1l.5,2.922a.9.9,0,0,1-.884,1.11" transform="translate(-105.197 -84.878)" fill="#fff"/>
                      <path id="Path_19303" data-name="Path 19303" d="M106.515,84.771h2.837a1.8,1.8,0,0,1,1.684,1.47l.5,2.919a1.191,1.191,0,0,1-1.175,1.473h-2.837a1.792,1.792,0,0,1-1.683-1.47l-.5-2.921a1.191,1.191,0,0,1,1.176-1.473M110.24,89.9a.605.605,0,0,0,.6-.749l-.5-2.919a.916.916,0,0,0-.855-.75H106.64a.606.606,0,0,0-.6.747v.009l.5,2.919a.916.916,0,0,0,.858.747Z" transform="translate(-105.086 -84.765)" fill="#002b47"/>
                    </g>
                  </g>
                </g>
              </g>
            </g>
            <g id="Group_31217" data-name="Group 31217" transform="translate(88.208 64.581)" opacity="0.2">
              <g id="Group_31216" data-name="Group 31216">
                <g id="Group_31215" data-name="Group 31215" clip-path="url(#clip-path-9)">
                  <g id="Group_31214" data-name="Group 31214">
                    <g id="Group_31213" data-name="Group 31213" clip-path="url(#clip-path-16)">
                      <path id="Path_19305" data-name="Path 19305" d="M120.943,90.365H118.1a1.352,1.352,0,0,1-1.268-1.1l-.5-2.922a.9.9,0,0,1,.886-1.111h2.839a1.351,1.351,0,0,1,1.267,1.106l.5,2.922a.9.9,0,0,1-.883,1.11" transform="translate(-115.727 -84.864)" fill="#fff"/>
                      <path id="Path_19306" data-name="Path 19306" d="M117.045,84.756h2.837a1.794,1.794,0,0,1,1.683,1.47l.5,2.915a1.191,1.191,0,0,1-1.175,1.473h-2.837a1.792,1.792,0,0,1-1.683-1.47l-.5-2.919a1.191,1.191,0,0,1,1.176-1.473m3.724,5.135a.606.606,0,0,0,.6-.749l-.5-2.919a.916.916,0,0,0-.855-.742H117.17a.606.606,0,0,0-.6.747h0l.5,2.919a.916.916,0,0,0,.858.747Z" transform="translate(-115.616 -84.749)" fill="#002b47"/>
                    </g>
                  </g>
                </g>
              </g>
            </g>
            <g id="Group_31222" data-name="Group 31222" transform="translate(96.116 64.571)" opacity="0.2">
              <g id="Group_31221" data-name="Group 31221">
                <g id="Group_31220" data-name="Group 31220" clip-path="url(#clip-path-9)">
                  <g id="Group_31219" data-name="Group 31219">
                    <g id="Group_31218" data-name="Group 31218" clip-path="url(#clip-path-18)">
                      <path id="Path_19308" data-name="Path 19308" d="M131.3,90.351h-2.84a1.351,1.351,0,0,1-1.271-1.1l-.5-2.922a.9.9,0,0,1,.885-1.109h2.84a1.352,1.352,0,0,1,1.268,1.105l.5,2.922a.9.9,0,0,1-.884,1.11" transform="translate(-126.084 -84.85)" fill="#fff"/>
                      <path id="Path_19309" data-name="Path 19309" d="M127.4,84.743h2.837a1.794,1.794,0,0,1,1.683,1.47l.5,2.919A1.191,1.191,0,0,1,131.25,90.6h-2.837a1.792,1.792,0,0,1-1.679-1.47l-.5-2.919a1.191,1.191,0,0,1,1.176-1.473m3.724,5.135a.606.606,0,0,0,.6-.749l-.5-2.919a.916.916,0,0,0-.856-.75h-2.837a.606.606,0,0,0-.6.747h0l.5,2.919a.916.916,0,0,0,.858.747Z" transform="translate(-125.975 -84.737)" fill="#002b47"/>
                    </g>
                  </g>
                </g>
              </g>
            </g>
            <g id="Group_31227" data-name="Group 31227" transform="translate(81.894 74.583)" opacity="0.2">
              <g id="Group_31226" data-name="Group 31226">
                <g id="Group_31225" data-name="Group 31225" clip-path="url(#clip-path-7)">
                  <g id="Group_31224" data-name="Group 31224">
                    <g id="Group_31223" data-name="Group 31223" clip-path="url(#clip-path-20)">
                      <path id="Path_19311" data-name="Path 19311" d="M112.671,103.487h-2.839a1.35,1.35,0,0,1-1.268-1.1l-.5-2.922a.9.9,0,0,1,.885-1.109h2.84a1.352,1.352,0,0,1,1.268,1.1l.5,2.922a.9.9,0,0,1-.884,1.11" transform="translate(-107.456 -97.987)" fill="#fff"/>
                      <path id="Path_19312" data-name="Path 19312" d="M108.776,97.881h2.837a1.794,1.794,0,0,1,1.683,1.47l.5,2.919a1.191,1.191,0,0,1-1.175,1.473h-2.837a1.792,1.792,0,0,1-1.679-1.47l-.5-2.919a1.191,1.191,0,0,1,1.176-1.473m3.724,5.135a.606.606,0,0,0,.6-.749l-.5-2.919a.916.916,0,0,0-.856-.75h-2.837a.606.606,0,0,0-.6.747h0l.5,2.919a.916.916,0,0,0,.858.747Z" transform="translate(-107.346 -97.875)" fill="#002b47"/>
                    </g>
                  </g>
                </g>
              </g>
            </g>
            <g id="Group_31232" data-name="Group 31232" transform="translate(89.933 74.571)" opacity="0.2">
              <g id="Group_31231" data-name="Group 31231">
                <g id="Group_31230" data-name="Group 31230" clip-path="url(#clip-path-9)">
                  <g id="Group_31229" data-name="Group 31229">
                    <g id="Group_31228" data-name="Group 31228" clip-path="url(#clip-path-22)">
                      <path id="Path_19314" data-name="Path 19314" d="M123.2,103.473h-2.838a1.351,1.351,0,0,1-1.268-1.105l-.5-2.922a.9.9,0,0,1,.884-1.109h2.839a1.351,1.351,0,0,1,1.267,1.106l.5,2.922a.9.9,0,0,1-.884,1.11" transform="translate(-117.986 -97.972)" fill="#fff"/>
                      <path id="Path_19315" data-name="Path 19315" d="M119.305,97.866h2.837a1.794,1.794,0,0,1,1.683,1.47l.5,2.919a1.191,1.191,0,0,1-1.175,1.473h-2.837a1.792,1.792,0,0,1-1.679-1.47l-.5-2.919a1.191,1.191,0,0,1,1.176-1.473M123.033,103a.606.606,0,0,0,.6-.749l-.5-2.919a.916.916,0,0,0-.856-.75H119.44a.606.606,0,0,0-.6.747h0l.5,2.919a.916.916,0,0,0,.858.747Z" transform="translate(-117.876 -97.86)" fill="#002b47"/>
                    </g>
                  </g>
                </g>
              </g>
            </g>
            <g id="Group_31237" data-name="Group 31237" transform="translate(97.84 74.561)" opacity="0.2">
              <g id="Group_31236" data-name="Group 31236">
                <g id="Group_31235" data-name="Group 31235" clip-path="url(#clip-path-9)">
                  <g id="Group_31234" data-name="Group 31234">
                    <g id="Group_31233" data-name="Group 31233" clip-path="url(#clip-path-24)">
                      <path id="Path_19317" data-name="Path 19317" d="M133.562,103.46h-2.839a1.351,1.351,0,0,1-1.271-1.1l-.5-2.922a.9.9,0,0,1,.885-1.109h2.84a1.352,1.352,0,0,1,1.268,1.105l.5,2.922a.9.9,0,0,1-.884,1.11" transform="translate(-128.344 -97.959)" fill="#fff"/>
                      <path id="Path_19318" data-name="Path 19318" d="M129.663,97.852H132.5a1.794,1.794,0,0,1,1.683,1.47l.5,2.919a1.191,1.191,0,0,1-1.175,1.473h-2.837a1.792,1.792,0,0,1-1.683-1.47l-.5-2.919a1.191,1.191,0,0,1,1.176-1.473m3.724,5.135a.606.606,0,0,0,.6-.749l-.5-2.919a.916.916,0,0,0-.856-.75h-2.837a.606.606,0,0,0-.6.747h0l.5,2.919a.916.916,0,0,0,.858.747Z" transform="translate(-128.233 -97.846)" fill="#002b47"/>
                    </g>
                  </g>
                </g>
              </g>
            </g>
            <g id="Group_31242" data-name="Group 31242" transform="translate(102.82 54.581)" opacity="0.2">
              <g id="Group_31241" data-name="Group 31241">
                <g id="Group_31240" data-name="Group 31240" clip-path="url(#clip-path-9)">
                  <g id="Group_31239" data-name="Group 31239">
                    <g id="Group_31238" data-name="Group 31238" clip-path="url(#clip-path-26)">
                      <path id="Path_19320" data-name="Path 19320" d="M140.081,77.242h-2.839a1.351,1.351,0,0,1-1.271-1.1l-.5-2.922a.9.9,0,0,1,.885-1.109h2.84a1.352,1.352,0,0,1,1.268,1.105l.5,2.922a.9.9,0,0,1-.884,1.11" transform="translate(-134.866 -71.741)" fill="#fff"/>
                      <path id="Path_19321" data-name="Path 19321" d="M136.185,71.634h2.837a1.794,1.794,0,0,1,1.683,1.47l.5,2.919A1.191,1.191,0,0,1,140.03,77.5H137.2a1.792,1.792,0,0,1-1.683-1.47l-.5-2.919a1.191,1.191,0,0,1,1.176-1.473m3.724,5.135a.606.606,0,0,0,.6-.749L140,73.1a.916.916,0,0,0-.856-.75H136.31a.606.606,0,0,0-.6.747h0l.5,2.919a.916.916,0,0,0,.858.747Z" transform="translate(-134.756 -71.628)" fill="#002b47"/>
                    </g>
                  </g>
                </g>
              </g>
            </g>
            <g id="Group_31247" data-name="Group 31247" transform="translate(104.544 64.571)" opacity="0.2">
              <g id="Group_31246" data-name="Group 31246">
                <g id="Group_31245" data-name="Group 31245" clip-path="url(#clip-path-9)">
                  <g id="Group_31244" data-name="Group 31244">
                    <g id="Group_31243" data-name="Group 31243" clip-path="url(#clip-path-28)">
                      <path id="Path_19323" data-name="Path 19323" d="M142.34,90.351H139.5a1.351,1.351,0,0,1-1.271-1.1l-.5-2.922a.9.9,0,0,1,.885-1.109h2.84a1.352,1.352,0,0,1,1.268,1.105l.5,2.922a.9.9,0,0,1-.884,1.11" transform="translate(-137.125 -84.85)" fill="#fff"/>
                      <path id="Path_19324" data-name="Path 19324" d="M138.445,84.743h2.837a1.794,1.794,0,0,1,1.683,1.47l.5,2.919A1.191,1.191,0,0,1,142.29,90.6h-2.837a1.792,1.792,0,0,1-1.683-1.47l-.5-2.919a1.191,1.191,0,0,1,1.176-1.473m3.724,5.135a.606.606,0,0,0,.6-.749l-.5-2.919a.916.916,0,0,0-.856-.75H138.57a.606.606,0,0,0-.6.747h0l.5,2.919a.916.916,0,0,0,.858.747Z" transform="translate(-137.015 -84.737)" fill="#002b47"/>
                    </g>
                  </g>
                </g>
              </g>
            </g>
            <g id="Group_31252" data-name="Group 31252" transform="translate(106.269 74.561)" opacity="0.2">
              <g id="Group_31251" data-name="Group 31251">
                <g id="Group_31250" data-name="Group 31250" clip-path="url(#clip-path-9)">
                  <g id="Group_31249" data-name="Group 31249">
                    <g id="Group_31248" data-name="Group 31248" clip-path="url(#clip-path-30)">
                      <path id="Path_19326" data-name="Path 19326" d="M144.6,103.46h-2.839a1.351,1.351,0,0,1-1.271-1.1l-.5-2.922a.9.9,0,0,1,.885-1.109h2.84a1.352,1.352,0,0,1,1.268,1.105l.5,2.922a.9.9,0,0,1-.884,1.11" transform="translate(-139.384 -97.959)" fill="#fff"/>
                      <path id="Path_19327" data-name="Path 19327" d="M140.7,97.851h2.837a1.794,1.794,0,0,1,1.683,1.466l.5,2.919a1.191,1.191,0,0,1-1.175,1.473h-2.837a1.792,1.792,0,0,1-1.683-1.47l-.5-2.919a1.191,1.191,0,0,1,1.176-1.473m3.724,5.135a.606.606,0,0,0,.6-.749l-.5-2.919a.916.916,0,0,0-.856-.75h-2.837a.606.606,0,0,0-.6.747h0l.5,2.919a.916.916,0,0,0,.858.747Z" transform="translate(-139.274 -97.845)" fill="#002b47"/>
                    </g>
                  </g>
                </g>
              </g>
            </g>
            <path id="Path_19329" data-name="Path 19329" d="M57.056,11.714l72.483-.1c5.475-.008,10.7,4.553,11.674,10.187l24.4,141.342c.973,5.635-2.676,10.207-8.151,10.215l-72.483.1c-5.469.008-10.694-4.554-11.667-10.188L48.911,21.929c-.973-5.635,2.676-10.207,8.145-10.215ZM79.224,160.378a7.469,7.469,0,0,0,7,6.113l16.07-.022a4.867,4.867,0,0,0,4.023-1.969l2.471-3.4a4.879,4.879,0,0,1,4.03-1.969l10.191-.014a6.962,6.962,0,0,1,4.335,1.631l4.925,4.046a6.916,6.916,0,0,0,4.335,1.638l16.86-.023c3.283,0,5.474-2.753,4.886-6.136l-23.4-135.579a7.469,7.469,0,0,0-7-6.113l-16.86.023a4.912,4.912,0,0,0-3.769,1.643l-3.53,4.053a4.94,4.94,0,0,1-3.768,1.65l-10.191.014a7,7,0,0,1-4.708-1.957l-3.641-3.4a7,7,0,0,0-4.7-1.963l-16.07.022c-3.283,0-5.474,2.748-4.89,6.129Z" transform="translate(-11.536 -2.764)" fill="none" stroke="#002b47" stroke-miterlimit="10" stroke-width="0.8"/>
            <path id="Path_19330" data-name="Path 19330" d="M233.363,81.3a.8.8,0,0,1,.516-.369c1.822-.4,10.436-2.283,10.657-2.418.2-.125.463.657-.982,2.265-.432.48-2.285,1.7-1.645,1.8l8.753.611a.809.809,0,0,1,.211,1.534l-6.687,6.122a.808.808,0,0,1-.591.033l-12.825-3.4a.808.808,0,0,1-.44-1.188Z" transform="translate(-54.47 -18.681)" fill="#fff"/>
            <path id="Path_19331" data-name="Path 19331" d="M233.363,81.3a.8.8,0,0,1,.516-.369c1.822-.4,10.436-2.283,10.657-2.418.2-.125.463.657-.982,2.265-.432.48-2.285,1.7-1.645,1.8l8.753.611a.809.809,0,0,1,.211,1.534l-6.687,6.122a.808.808,0,0,1-.591.033l-12.825-3.4a.808.808,0,0,1-.44-1.188Z" transform="translate(-54.47 -18.681)" fill="none" stroke="#142b45" stroke-miterlimit="10" stroke-width="1"/>
            <path id="Path_19332" data-name="Path 19332" d="M230.545,75.083l-4.38,13.643L200.9,80.642a7.166,7.166,0,1,1,4.317-13.666l.061.021Z" transform="translate(-46.348 -15.859)" fill="#fff"/>
            <path id="Path_19333" data-name="Path 19333" d="M230.887,74.835a.5.5,0,0,1-.015.25l-4.38,13.646a.5.5,0,0,1-.624.321L200.6,80.963a7.663,7.663,0,1,1,4.684-14.592l25.268,8.084a.5.5,0,0,1,.336.375M225.7,87.944,229.77,75.25l-24.793-7.93a6.669,6.669,0,0,0-4.077,12.7Z" transform="translate(-46.203 -15.707)" fill="#142b45"/>
            <path id="Path_19334" data-name="Path 19334" d="M225.493,211.345l-2.508-12.875,16.839-.782,3.962,6.722c6.627,3.289,16.041,5.615,16.041,7.264,0,.657-21.086-.166-34.338-.329" transform="translate(-52.76 -47.043)"/>
            <path id="Path_19335" data-name="Path 19335" d="M114.515,160.4l7.648-.824a.324.324,0,0,1,.338.269l2.87,14.848a.287.287,0,0,1-.052.229c-2,2.541-5.344,7.88-5.744,8.506a.282.282,0,0,0-.04.137c-.018.637,4.865,3.664,5.222,6.642a.41.41,0,0,1-.711.256l-10.325-5.136a.325.325,0,0,1-.06-.189l.624-24.476a.26.26,0,0,1,.234-.265" transform="translate(-26.893 -37.975)"/>
            <path id="Path_19336" data-name="Path 19336" d="M152.822,132.068l17.951-34.321L192.73,109.9,170.4,143.063a10.822,10.822,0,0,1-4.322,3.723l-39.925,19.008-2.093-20.982Z" transform="translate(-29.354 -23.261)" fill="#153050"/>
            <path id="Path_19337" data-name="Path 19337" d="M170.832,97.162l.026.012,21.956,12.149a.477.477,0,0,1,.188.65l-.018.037-22.329,33.169a11.306,11.306,0,0,1-4.513,3.889l-39.929,19.008a.479.479,0,0,1-.687-.388l-2.089-20.973a.479.479,0,0,1,.283-.486l28.607-12.683L170.2,97.371a.477.477,0,0,1,.632-.211m21.06,12.749-21.07-11.647L153.1,132.143a.49.49,0,0,1-.229.218l-28.442,12.6,1.985,19.954,39.306-18.709a10.348,10.348,0,0,0,4.13-3.558Z" transform="translate(-29.205 -23.11)" fill="#142b45"/>
            <path id="Path_19338" data-name="Path 19338" d="M211.33,178.9,184.423,97.569l21.909-1.861L233.75,177.4Z" transform="translate(-43.636 -22.776)" fill="#153050"/>
            <path id="Path_19339" data-name="Path 19339" d="M211.173,179.232a.5.5,0,0,1-.472-.342l-26.91-81.319a.5.5,0,0,1,.315-.628.524.524,0,0,1,.113-.024l21.909-1.865a.5.5,0,0,1,.511.337l27.418,81.691a.5.5,0,0,1-.311.629.506.506,0,0,1-.126.025l-22.42,1.5ZM184.937,97.856l26.589,80.359,21.393-1.428L205.83,96.077Z" transform="translate(-43.481 -22.619)" fill="#142b45"/>
            <path id="Path_19340" data-name="Path 19340" d="M189.336,112.114a.375.375,0,0,1,.466.25l6.354,21.267a.374.374,0,0,1-.7.255.361.361,0,0,1-.012-.041l-6.354-21.261a.373.373,0,0,1,.25-.465" transform="translate(-44.736 -26.676)" fill="#522f1a" fill-rule="evenodd"/>
            <path id="Path_19341" data-name="Path 19341" d="M209.533,38.566,195.389,34.8a12.343,12.343,0,0,0-15.106,8.722c-.042.159-.081.316-.117.476L170.46,87.08l40.548,8.02,4.857-47.364a8.59,8.59,0,0,0-6.332-9.174" transform="translate(-40.332 -8.181)" fill="#fff"/>
            <path id="Path_19342" data-name="Path 19342" d="M192.048,33.726a12.921,12.921,0,0,1,3.316.436l14.141,3.767a9.084,9.084,0,0,1,6.712,9.7L211.36,95a.5.5,0,0,1-.543.444l-.047-.007-40.548-8.02a.5.5,0,0,1-.4-.577v-.02l9.706-43.081a12.838,12.838,0,0,1,12.52-10.01ZM210.423,94.35l4.8-46.821a8.092,8.092,0,0,0-5.977-8.642l-14.14-3.766a11.826,11.826,0,0,0-10.4,2.147A11.68,11.68,0,0,0,180.5,43.95l-9.586,42.582Z" transform="translate(-40.18 -8.025)" fill="#142b45"/>
            <path id="Path_19343" data-name="Path 19343" d="M179.777,31.263l14.529,2.651L192.808,41l-10.971,5.225a7.481,7.481,0,0,1-9.432-2.59l-.884-1.326a3.728,3.728,0,0,1,1.037-5.174,2.569,2.569,0,0,1,.256-.153l3.176-1.77a3.276,3.276,0,0,1,3.78-3.956" transform="translate(-40.435 -7.426)" fill="#fff"/>
            <path id="Path_19344" data-name="Path 19344" d="M179.011,30.556a3.863,3.863,0,0,1,.7.063l14.529,2.651a.5.5,0,0,1,.4.579v.013l-1.494,7.087a.5.5,0,0,1-.273.346L181.9,46.527a7.977,7.977,0,0,1-10.069-2.767l-.884-1.326a4.224,4.224,0,0,1,1.176-5.862c.1-.063.192-.121.291-.177l2.873-1.592a3.777,3.777,0,0,1,3.283-4.215,3.928,3.928,0,0,1,.458-.029Zm14.537,3.6L179.52,31.6a2.948,2.948,0,0,0-.511-.047,2.777,2.777,0,0,0-2.769,2.786,2.74,2.74,0,0,0,.072.616.5.5,0,0,1-.244.547l-3.183,1.765a3.232,3.232,0,0,0-1.26,4.4,2.439,2.439,0,0,0,.136.221l.889,1.326a6.98,6.98,0,0,0,8.81,2.42L192.216,40.5Z" transform="translate(-40.278 -7.271)" fill="#142b45"/>
            <path id="Path_19345" data-name="Path 19345" d="M223.242,13.81A14.025,14.025,0,1,1,209.026,0h.192a13.92,13.92,0,0,1,14.024,13.81" transform="translate(-46.184)"/>
            <path id="Path_19346" data-name="Path 19346" d="M213.992,29.425s4.242,1.514,7.356-1.438,1.87-8.192,1.87-8.192L221.488,9.2s-3.3,4.911-8.6,4.154-4.831,3.584-4.831,3.584-5.362-3.893-6.774,1.3c-1,3.664,3.118,5.595,3.118,5.595L202.844,31.7s.142,4.086,5.377,5.122c5.393,1.063,5.764-3.229,5.764-3.229Z" transform="translate(-47.588 -2.189)" fill="#fff"/>
            <path id="Path_19347" data-name="Path 19347" d="M209.686,37.074a8.872,8.872,0,0,1-1.7-.179A7.069,7.069,0,0,1,203,33.716a5.49,5.49,0,0,1-.794-2.412v-.057l1.494-7.568a7.959,7.959,0,0,1-1.737-1.342,4.686,4.686,0,0,1-1.305-4.648c.687-2.535,2.272-3.073,3.475-3.073a7.19,7.19,0,0,1,3.311,1.021,3.841,3.841,0,0,1,.908-2.07,4.134,4.134,0,0,1,3.228-1.221,8.855,8.855,0,0,1,1.238.094,7.247,7.247,0,0,0,1.036.076c4.324,0,7.05-3.977,7.081-4.013l.7-1.043.2,1.238,1.715,10.587a12.418,12.418,0,0,1,.242,3.108,7.93,7.93,0,0,1-2.256,5.539A7.3,7.3,0,0,1,216.41,29.9a9.458,9.458,0,0,1-2.07-.233v3.558a4.58,4.58,0,0,1-.711,1.928,4.406,4.406,0,0,1-3.944,1.925M203.2,31.322a4.709,4.709,0,0,0,.676,1.928,6.138,6.138,0,0,0,4.3,2.672,7.792,7.792,0,0,0,1.51.161,3.374,3.374,0,0,0,3.66-2.927V28.3l.665.237a8.026,8.026,0,0,0,2.4.359,6.24,6.24,0,0,0,4.448-1.69c2.867-2.717,1.737-7.667,1.728-7.716l-.007-.035-1.544-9.493a12.439,12.439,0,0,1-1.374,1.316,9.183,9.183,0,0,1-5.8,2.229,8.211,8.211,0,0,1-1.175-.085,7.793,7.793,0,0,0-1.1-.081,2.777,2.777,0,0,0-3.167,3.123l.113,1.1-.9-.653a7.242,7.242,0,0,0-3.486-1.305c-1.266,0-2.085.763-2.515,2.334a3.69,3.69,0,0,0,1.063,3.7,6.814,6.814,0,0,0,1.787,1.315l.352.166Z" transform="translate(-47.438 -1.775)" fill="#0c2b45"/>
            <path id="Path_19348" data-name="Path 19348" d="M216.234,38.159V33.808l-5.812-3.556Z" transform="translate(-49.787 -7.199)" fill="#0c2b45"/>
            <path id="Path_19349" data-name="Path 19349" d="M204.5,20.506a.374.374,0,0,0,.067.524l2.463,1.891a.375.375,0,1,0,.458-.6l-2.463-1.889a.374.374,0,0,0-.524.067" transform="translate(-48.369 -4.845)" fill="#0c2b45" fill-rule="evenodd"/>
            <path id="Path_19350" data-name="Path 19350" d="M227.284,18.138c.2.66.019,1.289-.4,1.418s-.916-.305-1.111-.97-.018-1.289.4-1.418.916.305,1.111.97" transform="translate(-53.401 -4.081)" fill="#0c2b45"/>
            <path id="Path_19351" data-name="Path 19351" d="M220.326,19.627c.2.66.019,1.289-.4,1.418s-.916-.305-1.111-.97-.018-1.289.4-1.418.916.305,1.111.97" transform="translate(-51.755 -4.434)" fill="#0c2b45"/>
            <path id="Path_19352" data-name="Path 19352" d="M188.983,69.468l7.188-22.4a8.408,8.408,0,1,0-16.017-5.122l-9.2,28.667a8.985,8.985,0,0,0,4.027,10.166L202.9,96.866l8.4-14.537Z" transform="translate(-40.369 -8.59)" fill="#fff"/>
            <path id="Path_19353" data-name="Path 19353" d="M202.732,97.162a.5.5,0,0,1-.249-.066l-27.9-16.079a9.479,9.479,0,0,1-4.254-10.75l9.2-28.666a8.9,8.9,0,0,1,17.055,5.129c-.03.1-.062.2-.1.3l-7.069,22.01L211.381,81.7a.5.5,0,0,1,.182.676l-8.408,14.538a.5.5,0,0,1-.431.249ZM188.006,36.415a7.912,7.912,0,0,0-7.531,5.487l-9.2,28.669a7.842,7.842,0,0,0,.987,6.832l.013.021a7.894,7.894,0,0,0,2.8,2.735L202.55,96l7.906-13.68L188.579,69.708a.5.5,0,0,1-.224-.583l7.187-22.4a7.909,7.909,0,0,0-7.535-10.31Z" transform="translate(-40.213 -8.39)" fill="#142b45"/>
            <path id="Path_19354" data-name="Path 19354" d="M225.921,102l-5.14-2.848-5.63,10.7,6.009,1.621c.4.108,4.254,1.049,4.557,1.293a2.079,2.079,0,0,0,2.947-1.776l-.785-6.364A3.355,3.355,0,0,0,225.92,102" transform="translate(-50.906 -23.596)" fill="#fff"/>
            <path id="Path_19355" data-name="Path 19355" d="M228.131,104.088a2.479,2.479,0,0,1,.044.259l.785,6.419v.047a2.367,2.367,0,0,1-1.244,2.1,2.952,2.952,0,0,1-2.455.076,25.91,25.91,0,0,0-4.275-1.209h0a1.275,1.275,0,0,1-.16-.034l-6.511-1.77,6.219-11.707,5.393,3.069a3.869,3.869,0,0,1,2.207,2.753m-.166,6.7-.777-6.314c-.012-.06-.019-.126-.032-.189a2.865,2.865,0,0,0-1.637-2.043l-4.4-2.618-5.535,9.674s10.019,2.678,10.183,2.83a2.056,2.056,0,0,0,1.517-.118,1.407,1.407,0,0,0,.674-1.221Z" transform="translate(-50.707 -23.384)" fill="#0c2b45"/>
            <path id="Path_19356" data-name="Path 19356" d="M223.907,20.669l1.361,2.838-1.361.183" transform="translate(-52.978 -4.919)" fill="#fff"/>
            <path id="Path_19357" data-name="Path 19357" d="M223.741,24.044a.5.5,0,1,1-.067-.992l.687-.093-1.069-2.222a.5.5,0,0,1,.894-.429l1.365,2.838a.492.492,0,0,1-.377.7l-1.361.184a.55.55,0,0,1-.072,0" transform="translate(-52.813 -4.77)" fill="#0c2b45"/>
            <path id="Path_19358" data-name="Path 19358" d="M224.284,28.39a1.711,1.711,0,0,1-3.421.082V28.39" transform="translate(-52.258 -6.756)" fill="#fff"/>
            <path id="Path_19359" data-name="Path 19359" d="M222.415,30.437a2.214,2.214,0,0,1-2.208-2.2.5.5,0,1,1,.992,0,1.213,1.213,0,1,0,2.425.071v-.071a.5.5,0,0,1,.992,0,2.209,2.209,0,0,1-2.209,2.2" transform="translate(-52.103 -6.6)" fill="#0c2b45"/>
            <g id="Group_31257" data-name="Group 31257" transform="translate(41.959 142.284)" opacity="0.83">
              <g id="Group_31256" data-name="Group 31256">
                <g id="Group_31255" data-name="Group 31255" clip-path="url(#clip-path-31)">
                  <g id="Group_31254" data-name="Group 31254">
                    <g id="Group_31253" data-name="Group 31253" clip-path="url(#clip-path-31)">
                      <path id="Path_19360" data-name="Path 19360" d="M60.21,202.243c-1.023-.484-5.016-2.652-3.412-6.312a.98.98,0,0,1,.076-.146,12.87,12.87,0,0,1,2.007-2.387.916.916,0,0,1,1.527.687c-.021,1.773.076,4.247.8,4.249.916,0,.3-4.491.04-6.131a.9.9,0,0,1,.422-.916,34.667,34.667,0,0,1,4.932-2.56.91.91,0,0,1,1.175,1.185c-.71,1.8-1.626,4.4-.909,4.217.931-.234,3.324-4.848,4-6.184a.9.9,0,0,1,.586-.47c1.292-.323,5.283-1.081,6.374,1.592,1.308,3.2.06,5.038-.744,5.344s-6.138.9-5.913,1.567c.173.523,2.464,1.041,4.382.84a.9.9,0,0,1,.948,1.231c-.687,1.7-2.008,4.152-3.925,4.206-2.939.076-4.059-1.6-5.874-1.527s-3.069.728-2.111,1.1,3.961-.325,5.566.728,2.873,1.668.244,2.551-7.512,1.134-8.736-.817l-1.077-1.72a.9.9,0,0,0-.382-.337" transform="translate(-55.309 -186.814)" fill="#bbe2f9"/>
                      <path id="Path_19361" data-name="Path 19361" d="M65.94,206c-1.35,0-3.748-.211-4.638-1.629l-1.078-1.72a.588.588,0,0,0-.247-.22,9,9,0,0,1-2.793-2.042,4.177,4.177,0,0,1-.772-4.68,1.339,1.339,0,0,1,.1-.19,13.119,13.119,0,0,1,2.061-2.451,1.2,1.2,0,0,1,.816-.317,1.254,1.254,0,0,1,.886.369,1.2,1.2,0,0,1,.347.867c-.038,3.308.382,3.844.475,3.921.064-.089.268-.525.144-2.373-.085-1.266-.289-2.667-.4-3.384a1.212,1.212,0,0,1,.569-1.228,34.657,34.657,0,0,1,4.982-2.584,1.226,1.226,0,0,1,1.581,1.594,13.565,13.565,0,0,0-1.145,3.724A9.488,9.488,0,0,0,68.6,191.2q1-1.712,1.892-3.484a1.215,1.215,0,0,1,.79-.634,11.82,11.82,0,0,1,2.739-.36c2.047,0,3.435.739,4,2.138a7.384,7.384,0,0,1,.591,2.586,4.387,4.387,0,0,1-.332,1.868,2.367,2.367,0,0,1-1.181,1.3,15.209,15.209,0,0,1-1.954.4c-.8.14-1.7.3-2.443.468a5.743,5.743,0,0,0-1.236.382,3.147,3.147,0,0,0,.93.346,9.558,9.558,0,0,0,2.167.247,8.057,8.057,0,0,0,.858-.044,1.33,1.33,0,0,1,.135-.007,1.229,1.229,0,0,1,1.02.542,1.186,1.186,0,0,1,.111,1.128,11.5,11.5,0,0,1-1.546,2.8,3.588,3.588,0,0,1-2.661,1.6h-.211a6.823,6.823,0,0,1-2.147-.335q.052.03.1.064.177.114.347.229c.907.587,1.623,1.05,1.547,1.659-.06.474-.575.84-1.722,1.226a14.838,14.838,0,0,1-4.465.68m-6.544-12.623a.582.582,0,0,0-.4.153,12.66,12.66,0,0,0-1.954,2.325.712.712,0,0,0-.054.1,3.546,3.546,0,0,0,.669,4.018,8.349,8.349,0,0,0,2.589,1.888,1.222,1.222,0,0,1,.509.453l1.078,1.721c.534.848,2.028,1.335,4.1,1.335a14.167,14.167,0,0,0,4.264-.649c1.2-.4,1.293-.662,1.3-.71,0-.019,0-.124-.273-.36a9.6,9.6,0,0,0-.992-.694c-.115-.076-.229-.153-.351-.229a5.573,5.573,0,0,0-2.926-.568c-.24,0-.476,0-.7.008s-.415.007-.611.007a3.849,3.849,0,0,1-1.271-.145c-.519-.2-.551-.508-.524-.672.119-.722,1.775-.992,2.734-1.034h.144a5.209,5.209,0,0,1,2.233.659,7.262,7.262,0,0,0,3.31.867h.193c1.779-.05,3.045-2.533,3.641-4.009a.569.569,0,0,0-.056-.54.6.6,0,0,0-.567-.262,8.939,8.939,0,0,1-.925.047,10.1,10.1,0,0,1-2.4-.285c-1.228-.315-1.352-.687-1.393-.813a.45.45,0,0,1,.044-.377c.273-.458,1.466-.73,4.218-1.211a17.232,17.232,0,0,0,1.844-.368,1.771,1.771,0,0,0,.83-.968,5.414,5.414,0,0,0-.264-3.97c-.473-1.16-1.624-1.747-3.421-1.747a11.168,11.168,0,0,0-2.586.341.582.582,0,0,0-.382.3q-.9,1.79-1.913,3.521c-1.386,2.341-1.951,2.738-2.29,2.819a.487.487,0,0,1-.534-.189c-.143-.209-.22-.586.175-1.913.2-.676.5-1.527.9-2.535a.579.579,0,0,0-.059-.554.6.6,0,0,0-.49-.266.62.62,0,0,0-.22.043,34.8,34.8,0,0,0-4.88,2.534.589.589,0,0,0-.276.6c.111.7.31,2.072.4,3.336.153,2.144-.1,2.7-.3,2.939a.583.583,0,0,1-.453.217.65.65,0,0,1-.469-.208c-.17-.173-.687-.7-.646-4.36a.572.572,0,0,0-.166-.418.623.623,0,0,0-.442-.181m7.568,8.158a9.162,9.162,0,0,1,2.137.2q-.205-.092-.4-.185a4.67,4.67,0,0,0-1.966-.6H66.6a4.607,4.607,0,0,0-2.073.468c.018.008.038.018.063.027a3.561,3.561,0,0,0,1.043.1c.187,0,.382,0,.6-.007s.466,0,.715,0Z" transform="translate(-55.212 -186.717)" fill="#002b47"/>
                      <path id="Path_19362" data-name="Path 19362" d="M55.586,212.8l-.622-.089a21.114,21.114,0,0,1,3.243-7.529,37.538,37.538,0,0,1,6.162-7.291,54.908,54.908,0,0,1,11.061-7.823l.3.55a54.305,54.305,0,0,0-10.917,7.71,36.992,36.992,0,0,0-6.06,7.153,25.664,25.664,0,0,0-2.613,5.267,12.523,12.523,0,0,0-.562,2.049" transform="translate(-54.964 -187.514)" fill="#002b47"/>
                    </g>
                  </g>
                </g>
              </g>
            </g>
            <path id="Path_19363" data-name="Path 19363" d="M40.363,197.774c1.318-.624,6.464-3.419,4.4-8.135a1.266,1.266,0,0,0-.1-.188,16.606,16.606,0,0,0-2.587-3.076,1.176,1.176,0,0,0-1.964.88c.027,2.286-.1,5.473-1.032,5.475-1.184,0-.382-5.791-.052-7.9a1.163,1.163,0,0,0-.544-1.176,44.982,44.982,0,0,0-6.355-3.293,1.174,1.174,0,0,0-1.515,1.527c.916,2.318,2.1,5.667,1.172,5.435-1.2-.3-4.283-6.248-5.152-7.966a1.157,1.157,0,0,0-.754-.6c-1.664-.418-6.809-1.395-8.214,2.05-1.685,4.127-.076,6.489.959,6.89s7.909,1.153,7.621,2.021c-.224.673-3.176,1.34-5.649,1.078a1.167,1.167,0,0,0-1.221,1.588c.886,2.191,2.589,5.35,5.057,5.42,3.786.1,5.23-2.066,7.569-1.96s3.955.938,2.719,1.418-5.1-.421-7.171.938-3.7,2.15-.315,3.289,9.68,1.461,11.256-1.055l1.389-2.214a1.154,1.154,0,0,1,.486-.434" transform="translate(-4.005 -42.429)" fill="#bbe2f9"/>
            <path id="Path_19364" data-name="Path 19364" d="M32.755,202.553a19.021,19.021,0,0,1-5.725-.873c-1.441-.484-2.086-.934-2.158-1.505-.092-.728.763-1.283,1.953-2.051l.448-.291a7.762,7.762,0,0,1,4.161-.85c.316,0,.624.005.921.01.273,0,.53.009.773.009a4.612,4.612,0,0,0,1.374-.137.835.835,0,0,0,.205-.107,5.108,5.108,0,0,0-2.825-.7h-.153a6.089,6.089,0,0,0-2.573.782,9.962,9.962,0,0,1-4.568,1.185h-.269a4.539,4.539,0,0,1-3.359-2.033,14.755,14.755,0,0,1-1.98-3.587,1.441,1.441,0,0,1,.144-1.367,1.494,1.494,0,0,1,1.24-.659,1.056,1.056,0,0,1,.163.008,10.756,10.756,0,0,0,1.119.056,12.291,12.291,0,0,0,2.883-.338,3.124,3.124,0,0,0,1.266-.525,5.457,5.457,0,0,0-1.684-.558c-.971-.229-2.16-.434-3.206-.617a20.293,20.293,0,0,1-2.493-.516,2.977,2.977,0,0,1-1.472-1.634,5.563,5.563,0,0,1-.423-2.374,9.43,9.43,0,0,1,.754-3.3,3.941,3.941,0,0,1,2.147-2.166,7.271,7.271,0,0,1,2.931-.534,15.119,15.119,0,0,1,3.512.463,1.473,1.473,0,0,1,.958.768c.482.953,1.441,2.8,2.443,4.5,1.555,2.627,2.219,3.174,2.443,3.283.037-.254-.011-1.269-1.481-4.993a1.489,1.489,0,0,1,1.921-1.934,44.9,44.9,0,0,1,6.406,3.323,1.476,1.476,0,0,1,.687,1.492c-.14.9-.394,2.641-.509,4.241-.181,2.515.088,3.125.211,3.269.024.028.034.028.038.028a.139.139,0,0,0,.093-.053c.159-.161.673-1,.625-5.106a1.458,1.458,0,0,1,.421-1.053,1.527,1.527,0,0,1,1.076-.449,1.459,1.459,0,0,1,.992.386,16.87,16.87,0,0,1,2.64,3.138,1.58,1.58,0,0,1,.124.229,5.325,5.325,0,0,1,.389,3.367,5.906,5.906,0,0,1-1.369,2.566,11.527,11.527,0,0,1-3.57,2.611.833.833,0,0,0-.354.317l-1.392,2.214c-1.121,1.792-4.177,2.061-5.9,2.061M31.438,197.6a7.247,7.247,0,0,0-3.817.747c-.153.1-.305.2-.451.293-.8.52-1.714,1.108-1.671,1.45.016.127.218.479,1.735.992a18.36,18.36,0,0,0,5.522.84,11.638,11.638,0,0,0,3.321-.421,3.523,3.523,0,0,0,2.047-1.343l1.389-2.214a1.477,1.477,0,0,1,.618-.551,10.868,10.868,0,0,0,3.366-2.456,4.657,4.657,0,0,0,.877-5.267,1.031,1.031,0,0,0-.076-.144,16.175,16.175,0,0,0-2.534-3.013.84.84,0,0,0-.569-.224.889.889,0,0,0-.629.263.827.827,0,0,0-.24.6,29.268,29.268,0,0,1-.109,3.2,4.126,4.126,0,0,1-.7,2.349.752.752,0,0,1-.54.24.664.664,0,0,1-.517-.247c-.249-.29-.557-.992-.361-3.722.117-1.622.373-3.386.515-4.293a.85.85,0,0,0-.4-.86,44.173,44.173,0,0,0-6.3-3.276.879.879,0,0,0-.316-.06.859.859,0,0,0-.708.382.845.845,0,0,0-.085.8c.511,1.3.9,2.39,1.16,3.259.5,1.679.4,2.149.237,2.387a.534.534,0,0,1-.594.208c-.386-.1-1.106-.576-2.894-3.6-1.009-1.705-1.976-3.572-2.462-4.532a.847.847,0,0,0-.55-.442,14.441,14.441,0,0,0-3.359-.444c-2.355,0-3.867.776-4.492,2.308-.468,1.145-1.134,3.344-.34,5.182a2.377,2.377,0,0,0,1.121,1.3,22.148,22.148,0,0,0,2.378.481c3.451.6,5.047.966,5.378,1.519a.49.49,0,0,1,.05.412c-.131.395-.714.727-1.731.992a12.915,12.915,0,0,1-3.063.364,11.4,11.4,0,0,1-1.185-.06.871.871,0,0,0-.815.382.822.822,0,0,0-.082.781c1.812,4.48,3.769,5.191,4.775,5.222h.253a9.422,9.422,0,0,0,4.3-1.126,6.641,6.641,0,0,1,2.838-.84h.181c1.568.072,3.313.5,3.435,1.256.031.186-.01.534-.619.767a4.869,4.869,0,0,1-1.6.18c-.248,0-.508,0-.783-.009s-.593-.008-.9-.008" transform="translate(-3.907 -42.329)" fill="#002b47"/>
            <path id="Path_19365" data-name="Path 19365" d="M47.165,211.639a.314.314,0,0,1-.311-.269,16.112,16.112,0,0,0-.725-2.652,33.142,33.142,0,0,0-3.373-6.806,47.724,47.724,0,0,0-7.823-9.237,70.055,70.055,0,0,0-14.083-9.958.315.315,0,1,1,.3-.55,70.633,70.633,0,0,1,14.234,10.07,48.318,48.318,0,0,1,7.922,9.377,33.686,33.686,0,0,1,3.425,6.935,16.308,16.308,0,0,1,.741,2.735.315.315,0,0,1-.267.355.292.292,0,0,1-.044,0Z" transform="translate(-4.895 -43.341)" fill="#002b47"/>
            <path id="Rectangle_27827" data-name="Rectangle 27827" d="M0,0H14.5V2.191H0Z" transform="translate(33.785 167.523)" fill="#0c2b45"/>
            <g id="Group_31262" data-name="Group 31262" transform="translate(212.607 150.932)" opacity="0.83">
              <g id="Group_31261" data-name="Group 31261">
                <g id="Group_31260" data-name="Group 31260" clip-path="url(#clip-path-33)">
                  <g id="Group_31259" data-name="Group 31259">
                    <g id="Group_31258" data-name="Group 31258" clip-path="url(#clip-path-34)">
                      <path id="Path_19366" data-name="Path 19366" d="M282.27,209.215c-.734-.347-3.6-1.9-2.45-4.532a.647.647,0,0,1,.055-.1,9.254,9.254,0,0,1,1.441-1.715.658.658,0,0,1,1.1.492c-.015,1.273.054,3.054.576,3.054.657,0,.214-3.225.028-4.4a.647.647,0,0,1,.3-.656,24.9,24.9,0,0,1,3.541-1.838.654.654,0,0,1,.84.851c-.51,1.292-1.168,3.158-.653,3.028.669-.169,2.387-3.481,2.871-4.438a.644.644,0,0,1,.421-.337c.927-.229,3.793-.776,4.58,1.145.939,2.3.044,3.617-.534,3.838s-4.407.643-4.246,1.125c.124.376,1.77.747,3.146.6a.65.65,0,0,1,.722.57.642.642,0,0,1-.041.315c-.493,1.221-1.442,2.982-2.818,3.02-2.111.055-2.915-1.149-4.218-1.094s-2.2.523-1.515.79,2.844-.234,4,.523,2.061,1.2.176,1.832-5.394.814-6.273-.587l-.773-1.235a.654.654,0,0,0-.271-.241" transform="translate(-278.751 -198.137)" fill="#bbe2f9"/>
                      <path id="Path_19367" data-name="Path 19367" d="M286.383,211.908c-.969,0-2.691-.153-3.33-1.17l-.774-1.235a.413.413,0,0,0-.177-.158,6.475,6.475,0,0,1-2.005-1.466,3,3,0,0,1-.554-3.359,1.012,1.012,0,0,1,.076-.137,9.44,9.44,0,0,1,1.48-1.756.863.863,0,0,1,.586-.229.9.9,0,0,1,.636.265.863.863,0,0,1,.249.623c-.027,2.375.274,2.76.341,2.815.046-.064.192-.377.1-1.7q-.094-1.22-.289-2.429a.872.872,0,0,1,.408-.882,24.964,24.964,0,0,1,3.577-1.856.874.874,0,0,1,1.046.328.863.863,0,0,1,.089.816,9.941,9.941,0,0,0-.825,2.672,6.815,6.815,0,0,0,1.273-1.767q.718-1.229,1.359-2.5a.875.875,0,0,1,.567-.458,8.515,8.515,0,0,1,1.967-.258c1.47,0,2.467.531,2.874,1.535a5.31,5.31,0,0,1,.424,1.857,3.154,3.154,0,0,1-.239,1.341,1.7,1.7,0,0,1-.848.936,10.852,10.852,0,0,1-1.4.289c-.573.1-1.221.214-1.756.336a4.164,4.164,0,0,0-.887.273,2.266,2.266,0,0,0,.667.248,6.9,6.9,0,0,0,1.556.178,5.945,5.945,0,0,0,.616-.031.827.827,0,0,1,.1,0,.885.885,0,0,1,.733.389.852.852,0,0,1,.085.808,8.265,8.265,0,0,1-1.11,2.008,2.577,2.577,0,0,1-1.908,1.152h-.153a4.917,4.917,0,0,1-1.541-.24l.076.046q.127.082.249.165c.651.421,1.166.753,1.111,1.191-.043.34-.413.6-1.237.88a10.638,10.638,0,0,1-3.206.489m-4.7-9.063a.419.419,0,0,0-.283.11,9.086,9.086,0,0,0-1.4,1.669.441.441,0,0,0-.039.073,2.544,2.544,0,0,0,.48,2.884,5.989,5.989,0,0,0,1.859,1.356.877.877,0,0,1,.366.325l.773,1.235c.382.611,1.457.959,2.947.959a10.168,10.168,0,0,0,3.061-.466c.863-.29.929-.476.932-.511,0-.013,0-.089-.2-.258a6.9,6.9,0,0,0-.713-.5q-.125-.085-.252-.165a4.006,4.006,0,0,0-2.1-.408c-.173,0-.341,0-.5.006s-.3,0-.439,0a2.754,2.754,0,0,1-.916-.1c-.373-.146-.4-.365-.377-.483.086-.518,1.275-.711,1.963-.741h.1a3.741,3.741,0,0,1,1.6.473,5.209,5.209,0,0,0,2.376.623h.139c1.277-.036,2.186-1.819,2.615-2.879a.409.409,0,0,0-.041-.388.433.433,0,0,0-.407-.189,6.247,6.247,0,0,1-.664.034,7.224,7.224,0,0,1-1.72-.205c-.882-.229-.971-.495-1-.584a.321.321,0,0,1,.032-.27c.2-.328,1.053-.524,3.028-.87a12.451,12.451,0,0,0,1.324-.264,1.269,1.269,0,0,0,.6-.7,3.881,3.881,0,0,0-.189-2.848c-.34-.833-1.166-1.254-2.457-1.254a8,8,0,0,0-1.857.244.42.42,0,0,0-.274.219c-.27.534-.808,1.573-1.374,2.528-.992,1.679-1.4,1.966-1.644,2.025a.35.35,0,0,1-.382-.137c-.1-.153-.158-.42.126-1.374.144-.486.362-1.1.647-1.821a.429.429,0,0,0-.553-.558,25.068,25.068,0,0,0-3.5,1.82.422.422,0,0,0-.2.428c.076.505.222,1.489.288,2.4.109,1.539-.069,1.941-.213,2.11a.418.418,0,0,1-.326.153.469.469,0,0,1-.337-.149c-.122-.124-.493-.5-.463-3.13a.408.408,0,0,0-.119-.3.446.446,0,0,0-.318-.131m5.433,5.866a6.565,6.565,0,0,1,1.534.144q-.147-.066-.286-.133a3.367,3.367,0,0,0-1.412-.431h-.082a3.315,3.315,0,0,0-1.489.336l.045.019a2.531,2.531,0,0,0,.749.076h.941Z" transform="translate(-278.681 -198.064)" fill="#002b47"/>
                      <path id="Path_19368" data-name="Path 19368" d="M278.95,216.792l-.447-.064a15.155,15.155,0,0,1,2.328-5.406,26.971,26.971,0,0,1,4.428-5.235,39.408,39.408,0,0,1,7.939-5.617l.219.4a38.987,38.987,0,0,0-7.837,5.538,26.584,26.584,0,0,0-4.351,5.136,18.463,18.463,0,0,0-1.876,3.782,9.023,9.023,0,0,0-.4,1.472" transform="translate(-278.503 -198.637)" fill="#002b47"/>
                    </g>
                  </g>
                </g>
              </g>
            </g>
            <path id="Path_19369" data-name="Path 19369" d="M268.019,206c.947-.448,4.641-2.455,3.156-5.841a.909.909,0,0,0-.072-.134,11.907,11.907,0,0,0-1.858-2.208.84.84,0,0,0-1.41.632c.019,1.641-.076,3.93-.741,3.931-.85,0-.274-4.158-.037-5.673a.835.835,0,0,0-.39-.844A32.314,32.314,0,0,0,262.1,193.5a.84.84,0,0,0-1.087,1.094c.657,1.664,1.5,4.069.84,3.9-.862-.219-3.075-4.487-3.7-5.721a.83.83,0,0,0-.542-.434c-1.2-.3-4.886-1-5.9,1.472-1.209,2.964-.054,4.661.687,4.947s5.679.828,5.472,1.45c-.16.484-2.28.963-4.056.774a.84.84,0,0,0-.877,1.141c.637,1.573,1.86,3.841,3.631,3.893,2.718.076,3.755-1.484,5.435-1.408s2.84.673,1.953,1.018-3.664-.3-5.149.673-2.659,1.544-.229,2.361,6.947,1.05,8.083-.757l1-1.59a.82.82,0,0,1,.349-.311" transform="translate(-59.434 -45.693)" fill="#bbe2f9"/>
            <path id="Path_19370" data-name="Path 19370" d="M262.554,209.435a13.677,13.677,0,0,1-4.112-.627c-1.034-.347-1.5-.671-1.549-1.081-.066-.524.548-.921,1.4-1.473l.322-.208a5.573,5.573,0,0,1,2.988-.611c.229,0,.447,0,.661.007s.382.007.554.007a3.34,3.34,0,0,0,.987-.1.591.591,0,0,0,.147-.076,3.679,3.679,0,0,0-2.028-.507h-.109a4.371,4.371,0,0,0-1.847.562,7.149,7.149,0,0,1-3.283.851h-.193a3.261,3.261,0,0,1-2.412-1.46,10.571,10.571,0,0,1-1.421-2.572,1.033,1.033,0,0,1,.1-.982,1.073,1.073,0,0,1,.89-.473,1.009,1.009,0,0,1,.117.006,7.634,7.634,0,0,0,.8.04,8.846,8.846,0,0,0,2.07-.243,2.246,2.246,0,0,0,.909-.377,3.907,3.907,0,0,0-1.209-.4c-.7-.165-1.55-.311-2.3-.443a14.654,14.654,0,0,1-1.792-.368,2.137,2.137,0,0,1-1.057-1.174,4,4,0,0,1-.3-1.7,6.776,6.776,0,0,1,.542-2.367,2.83,2.83,0,0,1,1.541-1.554,5.223,5.223,0,0,1,2.1-.382,10.827,10.827,0,0,1,2.519.332,1.056,1.056,0,0,1,.687.552c.347.687,1.035,2.014,1.756,3.228,1.116,1.886,1.593,2.279,1.756,2.358.027-.183-.008-.911-1.063-3.588a1.069,1.069,0,0,1,1.379-1.39,32.15,32.15,0,0,1,4.6,2.386,1.06,1.06,0,0,1,.493,1.069c-.1.644-.283,1.9-.366,3.045-.13,1.8.063,2.244.153,2.347.018.021.024.021.027.021a.1.1,0,0,0,.066-.039c.114-.115.484-.721.449-3.664a1.05,1.05,0,0,1,.305-.756,1.1,1.1,0,0,1,.773-.322,1.046,1.046,0,0,1,.713.277,12.123,12.123,0,0,1,1.9,2.254,1.261,1.261,0,0,1,.089.167,3.829,3.829,0,0,1,.279,2.418,4.236,4.236,0,0,1-.983,1.843,8.281,8.281,0,0,1-2.563,1.875.6.6,0,0,0-.254.229l-1,1.591c-.8,1.287-3,1.479-4.234,1.479m-.947-3.551a5.2,5.2,0,0,0-2.741.534l-.324.21c-.576.373-1.231.8-1.2,1.04.011.092.153.344,1.246.711a13.193,13.193,0,0,0,3.964.6,8.378,8.378,0,0,0,2.385-.305,2.53,2.53,0,0,0,1.469-.965l1-1.589a1.054,1.054,0,0,1,.444-.4,7.816,7.816,0,0,0,2.417-1.764,3.341,3.341,0,0,0,.63-3.783.771.771,0,0,0-.055-.1,11.621,11.621,0,0,0-1.819-2.164.611.611,0,0,0-.409-.161.642.642,0,0,0-.452.189.592.592,0,0,0-.172.434,20.993,20.993,0,0,1-.076,2.3,2.963,2.963,0,0,1-.5,1.687.54.54,0,0,1-.387.173.475.475,0,0,1-.371-.179c-.179-.208-.4-.711-.26-2.672.084-1.165.267-2.431.37-3.083a.611.611,0,0,0-.286-.618,31.824,31.824,0,0,0-4.527-2.353.617.617,0,0,0-.8.8c.366.931.647,1.717.832,2.341.359,1.2.288,1.543.171,1.715a.382.382,0,0,1-.427.149c-.277-.069-.794-.413-2.078-2.583-.724-1.221-1.418-2.564-1.768-3.254a.611.611,0,0,0-.395-.317,10.386,10.386,0,0,0-2.412-.318c-1.691,0-2.776.558-3.225,1.657a5.084,5.084,0,0,0-.244,3.721,1.7,1.7,0,0,0,.8.931,16.05,16.05,0,0,0,1.708.345c2.478.433,3.624.692,3.861,1.09a.356.356,0,0,1,.036.3c-.1.283-.512.522-1.243.711a9.253,9.253,0,0,1-2.2.261,7.927,7.927,0,0,1-.85-.043.629.629,0,0,0-.586.273.593.593,0,0,0-.059.561c1.3,3.216,2.706,3.73,3.429,3.75h.181a6.764,6.764,0,0,0,3.09-.808,4.772,4.772,0,0,1,2.038-.6h.13c1.126.051,2.379.355,2.467.9.022.133-.007.382-.444.551a3.5,3.5,0,0,1-1.151.129c-.179,0-.365,0-.563-.006s-.426-.006-.649-.006" transform="translate(-59.361 -45.625)" fill="#002b47"/>
            <path id="Path_19371" data-name="Path 19371" d="M272.916,215.965a.229.229,0,0,1-.223-.193,11.581,11.581,0,0,0-.521-1.9,23.834,23.834,0,0,0-2.422-4.886,34.258,34.258,0,0,0-5.618-6.634A50.274,50.274,0,0,0,254.02,195.2a.229.229,0,0,1,.219-.4,50.742,50.742,0,0,1,10.222,7.229,34.68,34.68,0,0,1,5.688,6.733,24.215,24.215,0,0,1,2.459,4.979,11.644,11.644,0,0,1,.534,1.963.229.229,0,0,1-.224.257Z" transform="translate(-60.082 -46.354)" fill="#002b47"/>
            <path id="Rectangle_27830" data-name="Rectangle 27830" d="M0,0H10.413V1.573H0Z" transform="translate(206.737 169.055)" fill="#0c2b45"/>
          </g>
        </g>
      </g>
    </g>
  </g>
</svg>
