<svg xmlns="http://www.w3.org/2000/svg" xmlns:xlink="http://www.w3.org/1999/xlink" width="282" height="270" viewBox="0 0 282 270">
  <defs>
    <clipPath id="clip-path">
      <rect id="Rectangle_32384" data-name="Rectangle 32384" width="250" height="250"/>
    </clipPath>
    <clipPath id="clip-path-2">
      <rect id="Rectangle_28160" data-name="Rectangle 28160" width="273" height="191" transform="translate(-11452 -16864.898)" fill="#fff"/>
    </clipPath>
    <clipPath id="clip-path-3">
      <rect id="Rectangle_28159" data-name="Rectangle 28159" width="237.391" height="161.921" fill="none"/>
    </clipPath>
    <clipPath id="clip-path-5">
      <rect id="Rectangle_28152" data-name="Rectangle 28152" width="71.039" height="13.307" fill="none"/>
    </clipPath>
    <clipPath id="clip-path-6">
      <rect id="Rectangle_28153" data-name="Rectangle 28153" width="69.776" height="1.172" fill="none"/>
    </clipPath>
    <clipPath id="clip-path-8">
      <rect id="Rectangle_28155" data-name="Rectangle 28155" width="44.594" height="1.172" fill="none"/>
    </clipPath>
    <clipPath id="clip-Artboard_4">
      <rect width="282" height="270"/>
    </clipPath>
  </defs>
  <g id="Artboard_4" data-name="Artboard – 4" clip-path="url(#clip-Artboard_4)">
    <g id="Tax_benefits_1" data-name="Tax benefits – 1" transform="translate(16 10)" clip-path="url(#clip-path)">
      <g id="Mask_Group_24309" data-name="Mask Group 24309" transform="translate(11441 16891.189)" clip-path="url(#clip-path-2)">
        <g id="Group_31469" data-name="Group 31469" transform="translate(-11435.813 -16845.65)">
          <g id="Group_31468" data-name="Group 31468" clip-path="url(#clip-path-3)">
            <g id="Group_31467" data-name="Group 31467">
              <g id="Group_31466" data-name="Group 31466" clip-path="url(#clip-path-3)">
                <path id="Path_20026" data-name="Path 20026" d="M61.228,16.084A61.228,61.228,0,1,1,0,77.312,61.228,61.228,0,0,1,61.228,16.084" transform="translate(0 4.869)" fill="#e9e9e9"/>
                <path id="Path_20027" data-name="Path 20027" d="M186.976,13A12.549,12.549,0,0,0,174.426.45h-79.2A12.548,12.548,0,0,0,82.678,13V149.264h104.3Z" transform="translate(25.028 0.136)" fill="none" stroke="#002b47" stroke-miterlimit="10" stroke-width="0.9"/>
                <path id="Path_20028" data-name="Path 20028" d="M176.871,14.557a7.532,7.532,0,0,0-7.532-7.532H155.287a7.528,7.528,0,0,0-5.53,2.419l-3.865,4.179a7.531,7.531,0,0,1-5.529,2.417h-12.9a7.534,7.534,0,0,1-5.131-2.017l-5.354-4.982a7.537,7.537,0,0,0-5.131-2.017H96.784a7.531,7.531,0,0,0-7.532,7.533V147.274h87.619Z" transform="translate(27.018 2.127)" fill="none" stroke="#002b47" stroke-miterlimit="10" stroke-width="0.9"/>
                <path id="Path_20029" data-name="Path 20029" d="M103.354,25.875h5.38a.713.713,0,0,1,.713.713v16.3a.712.712,0,0,0,.713.713h2.1a.712.712,0,0,0,.713-.713v-16.3a.713.713,0,0,1,.713-.713h5.38a.713.713,0,0,0,.713-.713V23.287a.713.713,0,0,0-.713-.713H103.354a.713.713,0,0,0-.713.713v1.876a.713.713,0,0,0,.713.713" transform="translate(31.071 6.834)" fill="#fedd31"/>
                <path id="Path_20030" data-name="Path 20030" d="M103.354,25.875h5.38a.713.713,0,0,1,.713.713v16.3a.712.712,0,0,0,.713.713h2.1a.712.712,0,0,0,.713-.713v-16.3a.713.713,0,0,1,.713-.713h5.38a.713.713,0,0,0,.713-.713V23.287a.713.713,0,0,0-.713-.713H103.354a.713.713,0,0,0-.713.713v1.876a.713.713,0,0,0,.713.712Z" transform="translate(31.071 6.834)" fill="#e52d12" stroke="#002b47" stroke-miterlimit="10" stroke-width="0.9"/>
                <path id="Path_20031" data-name="Path 20031" d="M120.441,23.073l-6.18,19.606a.711.711,0,0,0,.679.925h2.127a.711.711,0,0,0,.679-.5l1.122-3.56a.713.713,0,0,1,.68-.5h7.242a.711.711,0,0,1,.679.5l1.136,3.563a.715.715,0,0,0,.68.5h2.127a.712.712,0,0,0,.68-.925L125.91,23.073a.712.712,0,0,0-.68-.5h-4.109a.712.712,0,0,0-.68.5m-.089,11.762,2.114-6.709a.713.713,0,0,1,1.359,0l2.14,6.71a.713.713,0,0,1-.679.93h-4.255a.713.713,0,0,1-.68-.928" transform="translate(34.578 6.834)" fill="#fedd31"/>
                <path id="Path_20032" data-name="Path 20032" d="M120.441,23.073l-6.18,19.606a.711.711,0,0,0,.679.925h2.127a.711.711,0,0,0,.679-.5l1.122-3.56a.713.713,0,0,1,.68-.5h7.242a.711.711,0,0,1,.679.5l1.136,3.563a.715.715,0,0,0,.68.5h2.127a.712.712,0,0,0,.68-.925L125.91,23.073a.712.712,0,0,0-.68-.5h-4.109a.712.712,0,0,0-.68.5Zm-.089,11.762,2.114-6.709a.713.713,0,0,1,1.359,0l2.14,6.71a.713.713,0,0,1-.679.93h-4.255a.713.713,0,0,1-.679-.931Z" transform="translate(34.578 6.834)" fill="#e52d12" stroke="#002b47" stroke-miterlimit="10" stroke-width="0.9"/>
                <path id="Path_20033" data-name="Path 20033" d="M140.586,32.578l5.922-8.9a.713.713,0,0,0-.593-1.109H143.3a.711.711,0,0,0-.6.328l-3.939,6.145a.713.713,0,0,1-1.2,0l-3.977-6.15a.717.717,0,0,0-.6-.326h-2.59a.713.713,0,0,0-.593,1.109l5.92,8.894a.71.71,0,0,1,0,.792L129.6,42.5a.712.712,0,0,0,.591,1.11h2.616a.715.715,0,0,0,.6-.324l4.154-6.394a.713.713,0,0,1,1.2,0l4.144,6.391a.709.709,0,0,0,.6.326h2.587a.713.713,0,0,0,.593-1.109l-6.094-9.128a.715.715,0,0,1,0-.791" transform="translate(39.196 6.834)" fill="#fedd31"/>
                <path id="Path_20034" data-name="Path 20034" d="M140.586,32.578l5.922-8.9a.713.713,0,0,0-.593-1.109H143.3a.711.711,0,0,0-.6.328l-3.939,6.145a.713.713,0,0,1-1.2,0l-3.977-6.15a.717.717,0,0,0-.6-.326h-2.59a.713.713,0,0,0-.593,1.109l5.92,8.894a.71.71,0,0,1,0,.792L129.6,42.5a.712.712,0,0,0,.591,1.11h2.616a.715.715,0,0,0,.6-.324l4.154-6.394a.713.713,0,0,1,1.2,0l4.144,6.391a.709.709,0,0,0,.6.326h2.587a.713.713,0,0,0,.593-1.109l-6.094-9.128a.715.715,0,0,1-.005-.794Z" transform="translate(39.196 6.834)" fill="#e52d12" stroke="#002b47" stroke-miterlimit="10" stroke-width="0.9"/>
                <g id="Group_31456" data-name="Group 31456" transform="translate(124.334 55.277)" opacity="0.2">
                  <g id="Group_31455" data-name="Group 31455">
                    <g id="Group_31454" data-name="Group 31454" clip-path="url(#clip-path-5)">
                      <path id="Rectangle_28151" data-name="Rectangle 28151" d="M1.671,0H68.2a1.67,1.67,0,0,1,1.67,1.67v8.794a1.671,1.671,0,0,1-1.67,1.671H1.671A1.671,1.671,0,0,1,0,10.464V1.671A1.671,1.671,0,0,1,1.671,0Z" transform="translate(0.587 0.586)" fill="none" stroke="#002b47" stroke-linecap="round" stroke-miterlimit="10" stroke-width="0.9"/>
                    </g>
                  </g>
                </g>
                <g id="Group_31459" data-name="Group 31459" transform="translate(124.539 77.623)" opacity="0.2">
                  <g id="Group_31458" data-name="Group 31458">
                    <g id="Group_31457" data-name="Group 31457" clip-path="url(#clip-path-6)">
                      <line id="Line_612" data-name="Line 612" x2="68.604" transform="translate(0.586 0.586)" fill="none" stroke="#002b47" stroke-linecap="round" stroke-miterlimit="10" stroke-width="0.9"/>
                    </g>
                  </g>
                </g>
                <g id="Group_31462" data-name="Group 31462" transform="translate(124.539 86.443)" opacity="0.2">
                  <g id="Group_31461" data-name="Group 31461">
                    <g id="Group_31460" data-name="Group 31460" clip-path="url(#clip-path-6)">
                      <line id="Line_613" data-name="Line 613" x2="68.604" transform="translate(0.586 0.586)" fill="none" stroke="#002b47" stroke-linecap="round" stroke-miterlimit="10" stroke-width="0.9"/>
                    </g>
                  </g>
                </g>
                <g id="Group_31465" data-name="Group 31465" transform="translate(124.539 95.264)" opacity="0.2">
                  <g id="Group_31464" data-name="Group 31464">
                    <g id="Group_31463" data-name="Group 31463" clip-path="url(#clip-path-8)">
                      <line id="Line_614" data-name="Line 614" x2="43.422" transform="translate(0.586 0.586)" fill="none" stroke="#002b47" stroke-linecap="round" stroke-miterlimit="10" stroke-width="0.9"/>
                    </g>
                  </g>
                </g>
                <path id="Path_20035" data-name="Path 20035" d="M158.808,109.959a18.618,18.618,0,0,0,.95,5.215,2.532,2.532,0,0,0,2.4,1.717h0a2.26,2.26,0,0,0,2.088-1.393,24.323,24.323,0,0,0,1.482-5.54Z" transform="translate(48.074 33.286)" fill="#fff"/>
                <path id="Path_20036" data-name="Path 20036" d="M158.808,109.959a18.618,18.618,0,0,0,.95,5.215,2.532,2.532,0,0,0,2.4,1.717h0a2.26,2.26,0,0,0,2.088-1.393,24.323,24.323,0,0,0,1.482-5.54Z" transform="translate(48.074 33.286)" fill="none" stroke="#002b47" stroke-miterlimit="10" stroke-width="0.9"/>
                <path id="Path_20037" data-name="Path 20037" d="M142.835,109.959a18.62,18.62,0,0,0,.95,5.215,2.532,2.532,0,0,0,2.4,1.717h0a2.26,2.26,0,0,0,2.088-1.393,24.323,24.323,0,0,0,1.483-5.54Z" transform="translate(43.238 33.286)" fill="#fff"/>
                <path id="Path_20038" data-name="Path 20038" d="M142.835,109.959a18.62,18.62,0,0,0,.95,5.215,2.532,2.532,0,0,0,2.4,1.717h0a2.26,2.26,0,0,0,2.088-1.393,24.323,24.323,0,0,0,1.483-5.54Z" transform="translate(43.238 33.286)" fill="none" stroke="#002b47" stroke-miterlimit="10" stroke-width="0.9"/>
                <path id="Path_20039" data-name="Path 20039" d="M178.627,100.074q.1.5.19,1.046c1.088,6.777,1.045,13.109-.956,19.494a4.321,4.321,0,0,1-4.123,3.024h0a3.907,3.907,0,0,1-3.7-2.656l-1.4-4.145H150.289L148.64,121.5a3.2,3.2,0,0,1-3.02,2.135,3.633,3.633,0,0,1-3.538-2.809l-.928-3.994h-5.518a1.556,1.556,0,0,1-1.468-.973A16.91,16.91,0,0,1,134.3,103.6a1.1,1.1,0,0,1,1.036-.657h4.717a15.348,15.348,0,0,1,7.264-11.424L145.478,88s3.081-1.213,5.808,2.294a35.264,35.264,0,0,1,19.53.473,10.114,10.114,0,0,1,4.48,2.741,12.29,12.29,0,0,1,2.061,2.815,11.972,11.972,0,0,1,.746,1.769Z" transform="translate(40.286 26.577)" fill="#7f7f7f"/>
                <path id="Path_20040" data-name="Path 20040" d="M178.627,100.074q.1.5.19,1.046c1.088,6.777,1.045,13.109-.956,19.494a4.321,4.321,0,0,1-4.123,3.024h0a3.907,3.907,0,0,1-3.7-2.656l-1.4-4.145H150.289L148.64,121.5a3.2,3.2,0,0,1-3.02,2.135,3.633,3.633,0,0,1-3.538-2.809l-.928-3.994h-5.518a1.556,1.556,0,0,1-1.468-.973A16.91,16.91,0,0,1,134.3,103.6a1.1,1.1,0,0,1,1.036-.657h4.717a15.348,15.348,0,0,1,7.264-11.424L145.478,88s3.081-1.213,5.808,2.294a35.264,35.264,0,0,1,19.53.473,10.114,10.114,0,0,1,4.48,2.741,12.29,12.29,0,0,1,2.061,2.815,11.972,11.972,0,0,1,.746,1.769Z" transform="translate(40.286 26.577)" fill="none" stroke="#002b47" stroke-miterlimit="10" stroke-width="0.9"/>
                <path id="Path_20041" data-name="Path 20041" d="M137.264,106.335c0,3.838-.951,6.949-2.123,6.949s-2.122-3.111-2.122-6.949.95-6.949,2.122-6.949,2.123,3.111,2.123,6.949" transform="translate(40.267 30.086)" fill="#fff"/>
                <path id="Path_20042" data-name="Path 20042" d="M137.264,106.335c0,3.838-.951,6.949-2.123,6.949s-2.122-3.111-2.122-6.949.95-6.949,2.122-6.949S137.264,102.5,137.264,106.335Z" transform="translate(40.267 30.086)" fill="none" stroke="#002b47" stroke-miterlimit="10" stroke-width="0.9"/>
                <line id="Line_615" data-name="Line 615" y2="4.838" transform="translate(175.275 133.601)" fill="#fff"/>
                <line id="Line_616" data-name="Line 616" y2="4.838" transform="translate(175.275 133.601)" fill="none" stroke="#002b47" stroke-linecap="round" stroke-miterlimit="10" stroke-width="0.9"/>
                <path id="Path_20043" data-name="Path 20043" d="M144.594,96.706a1.673,1.673,0,0,1-3.345,0" transform="translate(42.758 29.274)" fill="none" stroke="#002b47" stroke-miterlimit="10" stroke-width="0.9"/>
                <path id="Path_20044" data-name="Path 20044" d="M159.775,92.692h-8.839a.913.913,0,0,1,0-1.826h8.839a.913.913,0,0,1,0,1.826" transform="translate(45.414 27.507)" fill="#fff"/>
                <path id="Path_20045" data-name="Path 20045" d="M159.775,92.692h-8.839a.913.913,0,0,1,0-1.826h8.839a.913.913,0,0,1,0,1.826Z" transform="translate(45.414 27.507)" fill="none" stroke="#002b47" stroke-miterlimit="10" stroke-width="0.9"/>
                <path id="Path_20046" data-name="Path 20046" d="M10.032,117.048a2.368,2.368,0,0,1,2.453-2.272H231.318a2.365,2.365,0,0,1,2.45,2.272v7.27a2.365,2.365,0,0,1-2.45,2.272H12.485a2.368,2.368,0,0,1-2.453-2.272Z" transform="translate(3.037 34.745)" fill="#fff"/>
                <path id="Path_20047" data-name="Path 20047" d="M10.032,117.048a2.368,2.368,0,0,1,2.453-2.272H231.318a2.365,2.365,0,0,1,2.45,2.272v7.27a2.365,2.365,0,0,1-2.45,2.272H12.485a2.368,2.368,0,0,1-2.453-2.272Z" transform="translate(3.037 34.745)" fill="none" stroke="#002b47" stroke-miterlimit="10" stroke-width="0.9"/>
                <path id="Path_20048" data-name="Path 20048" d="M72.083,35.617c3.709,8.448-3.444,19.8-3.444,19.8L51.949,68.355,44.8,104S21.68,97.258,21.68,84.585c0-16.633,12.644-20.66,12.644-20.66s-2.315-11.753,1.959-19.59c7.87-14.425,19.375-11.358,19.375-11.358s10.85-10.058,16.425,2.641" transform="translate(6.563 8.838)" fill="#010101"/>
                <path id="Path_20049" data-name="Path 20049" d="M61.765,61.136,49.02,60.091A29.119,29.119,0,0,0,31.89,66.15c-9.61,7.208-17.131,32.172-17.131,32.172l18.384.627L24.159,133.42,78.8,130.088s-2.549-56.867-5.7-63.937c-1.752-3.933-11.341-5.014-11.341-5.014" transform="translate(4.468 18.189)" fill="#153050"/>
                <path id="Path_20050" data-name="Path 20050" d="M61.765,61.136,49.02,60.091A29.119,29.119,0,0,0,31.89,66.15c-9.61,7.208-17.131,32.172-17.131,32.172l18.384.627L24.159,133.42,78.8,130.088s-2.549-56.867-5.7-63.937c-1.752-3.933-11.341-5.014-11.341-5.014" transform="translate(4.468 18.189)" fill="none" stroke="#002b47" stroke-miterlimit="10" stroke-width="0.9"/>
                <path id="Rectangle_28156" data-name="Rectangle 28156" d="M1.858,0H72.205a1.857,1.857,0,0,1,1.857,1.857V4.92a1.857,1.857,0,0,1-1.857,1.857H1.858A1.858,1.858,0,0,1,0,4.919V1.858A1.858,1.858,0,0,1,1.858,0Z" transform="translate(79.813 142.743)" fill="#004880"/>
                <path id="Rectangle_28157" data-name="Rectangle 28157" d="M1.858,0H72.205a1.857,1.857,0,0,1,1.857,1.857V4.92a1.857,1.857,0,0,1-1.857,1.857H1.858A1.858,1.858,0,0,1,0,4.919V1.858A1.858,1.858,0,0,1,1.858,0Z" transform="translate(79.813 142.743)" fill="#4a88f5" stroke="#002b47" stroke-miterlimit="10" stroke-width="0.9"/>
                <path id="Path_20051" data-name="Path 20051" d="M94.532,85.894A2.417,2.417,0,0,1,96.8,84.306h49.465a2.418,2.418,0,0,1,2.252,3.3L134.32,124H80.589Z" transform="translate(24.396 25.521)" fill="#4a88f5"/>
                <path id="Path_20052" data-name="Path 20052" d="M94.532,85.894A2.417,2.417,0,0,1,96.8,84.306h49.465a2.418,2.418,0,0,1,2.252,3.3L134.32,124H80.589Z" transform="translate(24.396 25.521)" fill="none" stroke="#002b47" stroke-miterlimit="10" stroke-width="0.9"/>
                <path id="Path_20053" data-name="Path 20053" d="M10.267,112.836l6.059-23.4,18.594.627L29.7,112.418l34.053.418,11.282-1.88,12.18,5.751a.418.418,0,0,1-.253.789l-11.928-2.155L87.713,121.2a.419.419,0,0,1-.025.77l-1.73.666a.447.447,0,0,1-.132.027l-19.361.832-42.953,5.583A12.327,12.327,0,0,1,10.267,112.84" transform="translate(2.9 27.074)" fill="#fff"/>
                <path id="Path_20054" data-name="Path 20054" d="M10.267,112.836l6.059-23.4,18.594.627L29.7,112.418l34.053.418,11.282-1.88,12.18,5.751a.418.418,0,0,1-.253.789l-11.928-2.155L87.713,121.2a.419.419,0,0,1-.025.77l-1.73.666a.447.447,0,0,1-.132.027l-19.361.832-42.953,5.583A12.327,12.327,0,0,1,10.267,112.84" transform="translate(2.9 27.074)" fill="none" stroke="#002b47" stroke-miterlimit="10" stroke-width="0.9"/>
                <path id="Path_20055" data-name="Path 20055" d="M60.511,110.865a.327.327,0,1,0-.262.6l10.446,4.6a.327.327,0,0,0,.261-.6Zm.206,2.088a.327.327,0,0,0-.258.6l6.267,2.716a.327.327,0,0,0,.258-.6Z" transform="translate(18.18 33.552)" fill="#2b150a" fill-rule="evenodd"/>
                <path id="Path_20056" data-name="Path 20056" d="M54.652,62.065s4.875.951,7.78-2.79.676-9.252.676-9.252L59.471,38.737s-7.734,1.494-8.987,5.255c-3.343,7.1-4.368,5.419-4.368,5.419s-6.491-3.361-7.168,2.543c-.478,4.17,4.328,5.59,4.328,5.59l-1.357,8.8L49.145,83.69l5.861-16Z" transform="translate(11.78 11.726)" fill="#fff"/>
                <path id="Path_20057" data-name="Path 20057" d="M54.652,62.065s4.875.951,7.78-2.79.676-9.252.676-9.252L59.471,38.737s-7.734,1.494-8.987,5.255c-3.343,7.1-4.368,5.419-4.368,5.419s-6.491-3.361-7.168,2.543c-.478,4.17,4.328,5.59,4.328,5.59l-1.357,8.8L49.145,83.69l5.861-16Z" transform="translate(11.78 11.726)" fill="none" stroke="#002b47" stroke-miterlimit="10" stroke-width="0.9"/>
                <path id="Path_20058" data-name="Path 20058" d="M52.666,61.161l-.052-4.183-7.091-2.9Z" transform="translate(13.781 16.369)" fill="#0e2b45"/>
                <path id="Path_20059" data-name="Path 20059" d="M54.986,44.414c.469-.139,1.028.349,1.248,1.09s.021,1.458-.448,1.6-1.027-.349-1.248-1.092-.021-1.456.448-1.6" transform="translate(16.482 13.437)" fill="#0e2b45"/>
                <path id="Path_20060" data-name="Path 20060" d="M49.855,46.338c.469-.139,1.028.349,1.248,1.09s.021,1.458-.448,1.6-1.027-.349-1.248-1.092-.021-1.456.448-1.6" transform="translate(14.929 14.02)" fill="#0e2b45"/>
                <path id="Path_20061" data-name="Path 20061" d="M64.259,119.756l-3.8-19.925,7.73-16.714,7.1,11.908,12.114-26.74.534-1.247.631-9.141a.356.356,0,0,1,.666-.15l2.621,4.661,10.968-9.27a.419.419,0,0,1,.641.517l-4.128,7.683,8.891-6.349a.355.355,0,0,1,.477.52l-7.053,8.323,8.737-4.367a.355.355,0,0,1,.409.569l-7.5,7.538,5.031-2.1a.356.356,0,0,1,.361.6l-5.074,4.163-5.129,3.89-13.32,39.667a13.189,13.189,0,0,1-20.912,5.964" transform="translate(18.303 16.055)" fill="#fff"/>
                <path id="Path_20062" data-name="Path 20062" d="M64.259,119.756l-3.8-19.925,7.73-16.714,7.1,11.908,12.114-26.74.534-1.247.631-9.141a.356.356,0,0,1,.666-.15l2.621,4.661,10.968-9.27a.419.419,0,0,1,.641.517l-4.128,7.683,8.891-6.349a.355.355,0,0,1,.477.52l-7.053,8.323,8.737-4.367a.355.355,0,0,1,.409.569l-7.5,7.538,5.031-2.1a.356.356,0,0,1,.361.6l-5.074,4.163-5.129,3.89-13.32,39.667a13.189,13.189,0,0,1-20.912,5.964" transform="translate(18.303 16.055)" fill="none" stroke="#002b47" stroke-miterlimit="10" stroke-width="0.9"/>
                <path id="Path_20063" data-name="Path 20063" d="M60.76,96.514,75.037,90,58.949,63.671" transform="translate(17.845 19.274)" fill="#fff"/>
                <path id="Path_20064" data-name="Path 20064" d="M60.76,96.514,75.037,90,58.949,63.671" transform="translate(17.845 19.274)" fill="#153050" stroke="#002b47" stroke-miterlimit="10" stroke-width="0.9"/>
                <path id="Path_20065" data-name="Path 20065" d="M114.676,101.681a5.615,5.615,0,1,1-5.616-5.616,5.615,5.615,0,0,1,5.616,5.616" transform="translate(31.314 29.08)" fill="#ed3b25"/>
                <path id="Path_20066" data-name="Path 20066" d="M114.676,101.681a5.615,5.615,0,1,1-5.616-5.616,5.615,5.615,0,0,1,5.616,5.616Z" transform="translate(31.314 29.08)" fill="#e52d12" stroke="#002b47" stroke-miterlimit="10" stroke-width="0.9"/>
                <line id="Line_617" data-name="Line 617" x2="5.831" y2="27.366" transform="translate(73.132 89.611)" fill="#fedd31"/>
                <line id="Line_618" data-name="Line 618" x2="5.831" y2="27.366" transform="translate(73.132 89.611)" fill="none" stroke="#002b47" stroke-miterlimit="10" stroke-width="0.9"/>
                <line id="Line_619" data-name="Line 619" x1="3.287" y2="23.011" transform="translate(37.84 94.852)" fill="#fedd31"/>
                <line id="Line_620" data-name="Line 620" x1="3.287" y2="23.011" transform="translate(37.84 94.852)" fill="none" stroke="#002b47" stroke-miterlimit="10" stroke-width="0.9"/>
                <path id="Path_20067" data-name="Path 20067" d="M54.052,52.093a1.732,1.732,0,1,1-3.361-.835" transform="translate(15.329 15.517)" fill="#fff"/>
                <path id="Path_20068" data-name="Path 20068" d="M54.052,52.093a1.732,1.732,0,1,1-3.361-.835" transform="translate(15.329 15.517)" fill="none" stroke="#002b47" stroke-linecap="round" stroke-miterlimit="10" stroke-width="0.9"/>
                <path id="Path_20069" data-name="Path 20069" d="M52.219,44.958s.916,4.256,2.424,5.873l-2.586.053" transform="translate(15.758 13.61)" fill="#fff"/>
                <path id="Path_20070" data-name="Path 20070" d="M52.219,44.958s.916,4.256,2.424,5.873l-2.586.053" transform="translate(15.758 13.61)" fill="none" stroke="#002b47" stroke-linecap="round" stroke-linejoin="round" stroke-width="0.9"/>
                <path id="Path_20071" data-name="Path 20071" d="M168.043,98.763s9.077-2.1,6.584-5.323c-2.579-3.338-6.4.393-4.011,3.426a6.636,6.636,0,0,0,5.306,2.816" transform="translate(50.869 27.889)" fill="none" stroke="#002b47" stroke-linecap="round" stroke-miterlimit="10" stroke-width="0.9"/>
              </g>
            </g>
          </g>
        </g>
      </g>
    </g>
  </g>
</svg>
